<svg width="80" height="80" viewBox="0 0 80 80" fill="none" xmlns="http://www.w3.org/2000/svg">
<path d="M20.4079 55.625H17.4004C16.0229 55.625 14.9004 54.5025 14.9004 53.125V43.125C14.9004 41.745 13.7804 40.625 12.4004 40.625C11.0204 40.625 9.90039 41.745 9.90039 43.125V53.125C9.90039 57.26 13.2654 60.625 17.4004 60.625H20.4079C21.4929 64.225 24.8004 66.875 28.7504 66.875C32.7004 66.875 36.0079 64.225 37.0929 60.625H47.5004H52.9079C53.9929 64.225 57.3004 66.875 61.2504 66.875C65.2004 66.875 68.5079 64.225 69.5929 60.625H75.0004C76.3804 60.625 77.5004 59.505 77.5004 58.125V45.625C77.5004 43.7675 76.7229 41.2025 75.6929 39.6575L68.4654 28.8175C67.2304 26.9675 64.7204 25.625 62.4979 25.625H55.4879V20.625C55.4879 16.49 52.1229 13.125 47.9879 13.125H40.0004C38.6204 13.125 37.5004 14.245 37.5004 15.625C37.5004 17.005 38.6204 18.125 40.0004 18.125H47.9904C49.3679 18.125 50.4904 19.2475 50.4904 20.625V55.625H47.5004H37.0929C36.0079 52.025 32.7004 49.375 28.7504 49.375C24.8004 49.375 21.4929 52.025 20.4079 55.625ZM61.2504 61.875C59.1829 61.875 57.5004 60.1925 57.5004 58.125C57.5004 56.0575 59.1829 54.375 61.2504 54.375C63.3179 54.375 65.0004 56.0575 65.0004 58.125C65.0004 60.1925 63.3179 61.875 61.2504 61.875ZM55.4904 30.625H62.5004C63.0429 30.625 64.0054 31.14 64.3079 31.5925L68.6629 38.125H55.4904V30.625ZM55.4904 43.125H71.8929C72.2329 43.9175 72.5004 44.9675 72.5004 45.625V55.625H69.5929C68.5079 52.025 65.2004 49.375 61.2504 49.375C59.0354 49.375 57.0329 50.2275 55.4904 51.59V43.125ZM32.5004 58.125C32.5004 60.1925 30.8179 61.875 28.7504 61.875C26.6829 61.875 25.0004 60.1925 25.0004 58.125C25.0004 56.0575 26.6829 54.375 28.7504 54.375C30.8179 54.375 32.5004 56.0575 32.5004 58.125Z" fill="#00B9EC"/>
<path d="M35 15.625C35 14.245 33.88 13.125 32.5 13.125H5C3.62 13.125 2.5 14.245 2.5 15.625C2.5 17.005 3.62 18.125 5 18.125H32.5C33.88 18.125 35 17.005 35 15.625Z" fill="#00B9EC"/>
<path d="M27.5 28.125C28.88 28.125 30 27.005 30 25.625C30 24.245 28.88 23.125 27.5 23.125H10C8.62 23.125 7.5 24.245 7.5 25.625C7.5 27.005 8.62 28.125 10 28.125H27.5Z" fill="#00B9EC"/>
<path d="M22.5 38.125C23.88 38.125 25 37.005 25 35.625C25 34.245 23.88 33.125 22.5 33.125H15C13.62 33.125 12.5 34.245 12.5 35.625C12.5 37.005 13.62 38.125 15 38.125H22.5Z" fill="#00B9EC"/>
</svg>
