<svg width="80" height="80" viewBox="0 0 80 80" fill="none" xmlns="http://www.w3.org/2000/svg">
<path d="M71.9478 36.8387C69.5445 39.5364 67.1902 42.4424 65.5471 46.4518C64.7992 48.3033 63.0213 49.505 61.0225 49.505C59.0117 49.505 57.2338 48.3033 56.4736 46.4397C54.5728 41.78 51.6914 38.6045 48.8957 35.539C48.1969 34.7666 47.4979 33.994 46.8114 33.197C46.7747 33.2093 46.7498 33.2216 46.7134 33.2338C43.9913 34.0552 41.8944 37.6602 43.1574 40.5908C44.0157 42.6016 50.0362 42.2216 49.5213 46.5499C49.0922 50.0934 53.7268 51.0253 55.37 50.8538C57.0131 50.6576 59.539 53.5514 58.2637 54.8266C57.0009 56.1019 54.6097 56.1509 54.9775 59.437C55.0756 60.3934 57.9696 60.2709 57.9696 61.7177C57.9696 63.1768 56.4738 64.8322 57.6262 66.5121C57.8715 66.8798 58.1289 67.1619 58.3987 67.3825C52.8565 72.4835 45.4626 75.6101 37.3577 75.6101C20.2281 75.6101 6.29885 61.6808 6.29885 44.5513C6.29885 39.3525 7.58643 34.4476 9.8548 30.1316C9.84251 35.7106 12.8221 40.3455 14.2199 41.7433C18.7812 46.2923 25.3904 44.8577 26.2362 48.671C27.0945 52.4722 21.6994 52.4845 22.0551 55.3904C22.4228 58.3087 29.4488 59.0812 27.8794 61.7665C25.8071 65.3346 29.2772 65.5921 28.2718 69.9939C27.7323 72.3973 31.2023 72.8632 32.4898 71.0363C33.4708 69.6385 33.2745 67.9217 35.2487 65.8251C37.6642 63.2501 43.2679 62.8333 42.6424 58.5784C41.5757 51.5157 34.7092 50.4121 31.7173 48.7567C28.3208 46.893 29.1547 42.4174 28.4189 40.284C27.3889 37.2553 23.8943 41.1301 22.0305 39.3644C18.9651 36.4706 22.5823 32.3752 25.1572 32.4611C30.5891 32.6327 32.2566 37.9176 34.2552 37.7335C36.2049 37.5619 37.4679 34.8398 37.8111 33.393C38.5347 30.2418 36.585 31.6518 35.8003 30.0087C34.7458 27.8139 39.5033 25.7172 41.3425 24.0986C41.6246 23.8534 41.833 23.6204 41.9433 23.3997C42.4953 22.3207 41.7718 21.4991 40.5455 20.7512C38.0934 19.2674 33.6178 18.0904 33.4094 15.773C33.2867 14.3505 36.0089 13.664 39.111 13.5414C39.6259 13.5659 40.1287 13.615 40.6438 13.664C40.9012 12.2048 41.3181 10.7701 41.8821 9.39691C40.3985 9.2007 38.8904 9.10253 37.3575 9.10253C17.8124 9.10253 1.90918 25.0058 1.90918 44.5509C1.90905 64.0966 17.8124 79.9999 37.3575 79.9999C56.9026 79.9999 72.8062 64.0965 72.8062 44.5514C72.8062 41.9029 72.5118 39.3157 71.9478 36.8387ZM59.3545 0.0787408C49.3477 1.02462 42.4939 10.721 44.2404 20.6197C46.014 30.6747 55.2849 33.7697 59.8857 45.0565C60.3003 46.0736 61.7323 46.0787 62.1467 45.0615C67.2468 32.5431 78.0911 30.1001 78.0911 17.0738C78.091 7.09561 69.5315 -0.88322 59.3545 0.0787408ZM61.0172 26.0905C56.0373 26.0905 52.0003 22.0536 52.0003 17.0738C52.0003 12.094 56.0373 8.05717 61.0172 8.05717C65.997 8.05717 70.0338 12.094 70.0338 17.0738C70.0338 22.0535 65.9968 26.0905 61.0172 26.0905Z" fill="#00B9EC"/>
</svg>
