<svg width="80" height="80" viewBox="0 0 80 80" fill="none" xmlns="http://www.w3.org/2000/svg">
<path d="M67.8429 52.1453L55.6611 45.7249V13.8906C55.6611 10.6194 53 7.9461 49.7409 7.9461H45.7982C45.6151 6.29829 44.2236 5.00438 42.5148 5.00438H40.574C39.1581 2.51438 36.4972 0.939697 33.592 0.939697C30.6868 0.939697 28.0259 2.51423 26.61 5.00438H24.657C22.9603 5.00438 21.5687 6.29829 21.3736 7.9461H17.4309C14.1717 7.9461 11.5107 10.6192 11.5107 13.8906V58.3217C11.5107 61.593 14.1717 64.2539 17.4309 64.2539H40.4032V71.065C40.4032 71.5289 40.6473 71.9438 41.0501 72.1513L53.879 78.9136C53.9889 78.9747 54.2696 79.06 54.4526 79.06C54.6236 79.06 54.8921 78.9867 55.0142 78.9136L67.8431 72.1513C68.2459 71.9438 68.49 71.5288 68.49 71.065V53.2316C68.4898 52.8533 68.2701 52.3772 67.8429 52.1453ZM54.4526 47.8364L64.6571 53.2316L60.6168 55.3555L50.9982 49.6674L54.4526 47.8364ZM40.4031 53.2316V61.8127H17.4309C15.5145 61.8127 13.952 60.2502 13.952 58.3217V13.8906C13.952 11.962 15.5145 10.3874 17.4309 10.3874H21.3368V11.4981C21.3368 13.3291 22.8261 14.8183 24.657 14.8183H42.5148C44.3457 14.8183 45.835 13.3291 45.835 11.4981V10.3875H49.7411C51.6575 10.3875 53.22 11.962 53.22 13.8908V45.7249L41.0503 52.1453C40.6472 52.365 40.4031 52.8289 40.4031 53.2316ZM54.4526 58.6147L44.2359 53.2317L48.4593 50.998L58.0901 56.6983L54.4526 58.6147ZM66.0486 70.3327L55.6732 75.8133V60.7384L59.3596 58.7855V62.1544C59.3596 62.8258 59.909 63.375 60.5803 63.375C61.2639 63.375 61.8009 62.8258 61.8009 62.1544V57.4916L66.0487 55.2578L66.0486 70.3327Z" fill="#00B9EC"/>
<path d="M27.4628 25.6231H44.6184C45.2931 25.6231 45.8391 25.0766 45.8391 24.4025C45.8391 23.7284 45.2931 23.1819 44.6184 23.1819H27.4628C26.7881 23.1819 26.2422 23.7284 26.2422 24.4025C26.2422 25.0767 26.7881 25.6231 27.4628 25.6231Z" fill="#00B9EC"/>
<path d="M27.4628 35.4044H44.6184C45.2931 35.4044 45.8391 34.8578 45.8391 34.1838C45.8391 33.5097 45.2931 32.9631 44.6184 32.9631H27.4628C26.7881 32.9631 26.2422 33.5097 26.2422 34.1838C26.2422 34.8578 26.7881 35.4044 27.4628 35.4044Z" fill="#00B9EC"/>
<path d="M27.4628 45.1837H44.6184C45.2931 45.1837 45.8391 44.6371 45.8391 43.9631C45.8391 43.289 45.2931 42.7424 44.6184 42.7424H27.4628C26.7881 42.7424 26.2422 43.289 26.2422 43.9631C26.2422 44.6371 26.7881 45.1837 27.4628 45.1837Z" fill="#00B9EC"/>
<path d="M36.763 52.6409H27.4628C26.7881 52.6409 26.2422 53.1874 26.2422 53.8615C26.2422 54.5356 26.7881 55.0821 27.4628 55.0821H36.763C37.4377 55.0821 37.9836 54.5356 37.9836 53.8615C37.9836 53.1874 37.4377 52.6409 36.763 52.6409Z" fill="#00B9EC"/>
<path d="M24.1074 21.9103V26.9027C24.1074 27.5741 23.5704 28.1233 22.8868 28.1233H17.8945C17.223 28.1233 16.6738 27.5741 16.6738 26.9027V21.9103C16.6738 21.2267 17.223 20.6897 17.8945 20.6897H22.8868C23.5704 20.6897 24.1074 21.2269 24.1074 21.9103Z" fill="#00B9EC"/>
<path d="M24.1074 41.465V46.4574C24.1074 47.1409 23.5704 47.678 22.8868 47.678H17.8945C17.223 47.678 16.6738 47.1409 16.6738 46.4574V41.465C16.6738 40.7936 17.223 40.2444 17.8945 40.2444H22.8868C23.5704 40.2444 24.1074 40.7936 24.1074 41.465Z" fill="#00B9EC"/>
<path d="M19.6479 37.0735C19.9368 37.2954 20.3023 37.3723 20.6409 37.3012C20.989 37.229 21.2882 37.0085 21.461 36.6974L23.9595 32.1874C24.286 31.5979 24.0728 30.8554 23.4826 30.5287C22.895 30.2015 22.15 30.4148 21.8232 31.0049L20.0126 34.2735L18.6393 33.2156C18.1042 32.8043 17.3365 32.9038 16.9276 33.4385C16.5164 33.9726 16.6153 34.739 17.1493 35.1502L19.6479 37.0735Z" fill="#00B9EC"/>
<path d="M23.4826 50.3846C22.895 50.0561 22.15 50.2713 21.8232 50.8608L20.0126 54.1294L18.6393 53.0714C18.1042 52.6602 17.3365 52.7597 16.9276 53.2944C16.5164 53.8285 16.6153 54.5949 17.1493 55.0061L19.6478 56.9294C19.9367 57.1513 20.3021 57.2282 20.6407 57.1571C20.9889 57.0849 21.2881 56.8644 21.4609 56.5533L23.9593 52.0433C24.286 51.4538 24.0726 50.7113 23.4826 50.3846Z" fill="#00B9EC"/>
</svg>
