<svg width="80" height="80" viewBox="0 0 80 80" fill="none" xmlns="http://www.w3.org/2000/svg">
<path d="M73.3332 73.3333C71.8332 73.3333 71.1832 72.8167 70.2165 72.0333C69.0832 71.1333 67.6832 70 65.0165 70C62.3499 70 60.9332 71.1333 59.8165 72.0333C58.8332 72.8167 58.1832 73.3333 56.6999 73.3333C55.2165 73.3333 54.5499 72.8167 53.5832 72.0333C52.4499 71.1333 51.0499 70 48.3832 70C45.7165 70 44.2999 71.1333 43.1832 72.0333C42.1999 72.8167 41.5499 73.3333 40.0499 73.3333C38.5499 73.3333 37.8999 72.8167 36.9332 72.0333C35.7999 71.1333 34.3999 70 31.7332 70C29.0665 70 27.6499 71.1333 26.5332 72.0333C25.5499 72.8167 24.8999 73.3333 23.3999 73.3333C21.8999 73.3333 21.2165 72.7833 20.2665 72.0333C19.1332 71.1333 17.7332 70 15.0499 70C12.3665 70 10.9665 71.1333 9.8332 72.0333C8.8832 72.7833 8.19987 73.3333 6.69987 73.3333C5.7832 73.3333 5.0332 74.0833 5.0332 75C5.0332 75.9167 5.7832 76.6667 6.69987 76.6667C9.36654 76.6667 10.7832 75.5333 11.9165 74.6333C12.8665 73.8833 13.5499 73.3333 15.0499 73.3333C16.5499 73.3333 17.2332 73.8833 18.1832 74.6333C19.3165 75.5333 20.7165 76.6667 23.3999 76.6667C26.0832 76.6667 27.4832 75.5333 28.5999 74.6333C29.5832 73.85 30.2332 73.3333 31.7332 73.3333C33.2332 73.3333 33.8832 73.85 34.8499 74.6333C35.9832 75.5333 37.3832 76.6667 40.0499 76.6667C42.7165 76.6667 44.1332 75.5333 45.2499 74.6333C46.2332 73.85 46.8832 73.3333 48.3665 73.3333C49.8499 73.3333 50.5165 73.85 51.4832 74.6333C52.6165 75.5333 54.0165 76.6667 56.6832 76.6667C59.3499 76.6667 60.7665 75.5333 61.8832 74.6333C62.8665 73.85 63.5165 73.3333 64.9999 73.3333C66.4832 73.3333 67.1499 73.85 68.1165 74.6333C69.2499 75.5333 70.6499 76.6667 73.3165 76.6667C74.2332 76.6667 74.9832 75.9167 74.9832 75C74.9832 74.0833 74.2332 73.3333 73.3165 73.3333H73.3332Z" fill="#00B9EC"/>
<path d="M6.66686 68.334C9.33353 68.334 10.7502 67.2006 11.8835 66.3006C12.8335 65.5506 13.5169 65.0006 15.0169 65.0006C16.5169 65.0006 17.2002 65.5506 18.1502 66.3006C19.2835 67.2006 20.6835 68.334 23.3669 68.334C26.0502 68.334 27.4502 67.2006 28.5669 66.3006C29.5502 65.5173 30.2002 65.0006 31.7002 65.0006C33.2002 65.0006 33.8502 65.5173 34.8169 66.3006C35.9502 67.2006 37.3502 68.334 40.0169 68.334C42.6835 68.334 44.1002 67.2006 45.2169 66.3006C46.2002 65.5173 46.8502 65.0006 48.3335 65.0006C49.8169 65.0006 50.4835 65.5173 51.4502 66.3006C52.5502 67.184 53.9169 68.2506 56.4335 68.3173H56.5169H56.5502H56.6502C59.3169 68.3173 60.7335 67.184 61.8502 66.284C62.8335 65.5006 63.4835 64.984 64.9669 64.984C66.4502 64.984 67.1169 65.5006 68.0835 66.284C69.2169 67.184 70.6169 68.3173 73.2835 68.3173C74.2002 68.3173 74.9502 67.5673 74.9502 66.6507C74.9502 65.734 74.2002 64.984 73.2835 64.984C71.7835 64.984 71.1335 64.4673 70.1669 63.684C69.0335 62.784 67.6335 61.6507 64.9669 61.6507C62.3002 61.6507 60.8835 62.784 59.7669 63.684C59.4669 63.9173 59.2002 64.134 58.9169 64.3173L64.6835 44.534C65.3002 42.4673 64.3335 40.2673 62.3669 39.284L44.5335 30.7007C43.8835 30.384 43.1835 30.1673 42.4835 30.034V23.3173H47.4835V26.6507C47.4835 27.5673 48.2335 28.3173 49.1502 28.3173C50.0669 28.3173 50.8169 27.5673 50.8169 26.6507V23.3173H55.8169V31.6507C55.8169 32.5673 56.5669 33.3173 57.4835 33.3173C58.4002 33.3173 59.1502 32.5673 59.1502 31.6507V22.6007C59.1502 21.1507 57.9835 19.984 56.5335 19.984H34.1502V6.66732H39.1502V10.0007C39.1502 10.9173 39.9002 11.6673 40.8169 11.6673C41.7335 11.6673 42.4835 10.9173 42.4835 10.0007V6.66732H47.4835V15.0007C47.4835 15.9173 48.2335 16.6673 49.1502 16.6673C50.0669 16.6673 50.8169 15.9173 50.8169 15.0007V5.95065C50.8169 4.51732 49.6502 3.33398 48.2002 3.33398H33.4335C32.0002 3.33398 30.8169 4.50065 30.8169 5.95065V20.0007H25.1002C23.6502 20.0007 22.4835 21.1673 22.4835 22.6173V37.384C22.4835 37.5007 22.5002 37.6173 22.5169 37.734L19.2669 39.3007C17.3169 40.2673 16.3335 42.4673 16.9502 44.534L22.9002 64.9673C21.7002 64.8673 21.0335 64.384 20.1835 63.7007C19.0502 62.8007 17.6502 61.6673 14.9669 61.6673C12.2835 61.6673 10.8835 62.8007 9.7502 63.7007C8.80019 64.4507 8.11686 65.0006 6.61686 65.0006C5.7002 65.0006 4.9502 65.7506 4.9502 66.6673C4.9502 67.584 5.7002 68.334 6.61686 68.334H6.66686ZM30.8502 23.334V26.6673C30.8502 27.584 31.6002 28.334 32.5169 28.334C33.4335 28.334 34.1835 27.584 34.1835 26.6673V23.334H39.1835V30.0507C38.4835 30.184 37.7835 30.4007 37.1335 30.7173L25.8502 36.1507V23.334H30.8502ZM20.7502 42.3006L25.7169 39.9007C25.7169 39.9007 25.7502 39.9007 25.7669 39.884C25.7835 39.884 25.8169 39.8673 25.8335 39.8507L38.5169 33.734C38.7169 33.634 38.9335 33.584 39.1335 33.5173V50.1673C39.1335 51.084 39.8835 51.834 40.8002 51.834C41.7169 51.834 42.4669 51.084 42.4669 50.1673V33.5173C42.6669 33.584 42.8835 33.634 43.0669 33.734L60.8669 42.3173C61.3502 42.5506 61.6002 43.1173 61.4502 43.6173L55.2835 64.8007C54.6169 64.584 54.1169 64.2173 53.4835 63.7173C52.3502 62.8173 50.9502 61.684 48.2835 61.684C45.6169 61.684 44.2002 62.8173 43.0835 63.7173C42.1002 64.5006 41.4502 65.0173 39.9502 65.0173C38.4502 65.0173 37.8002 64.5006 36.8335 63.7173C35.7002 62.8173 34.3002 61.684 31.6335 61.684C28.9669 61.684 27.5502 62.8173 26.4335 63.7173C26.3169 63.8173 26.2002 63.9007 26.0835 63.984L20.1335 43.6007C19.9835 43.1007 20.2335 42.5506 20.7169 42.3173L20.7502 42.3006Z" fill="#00B9EC"/>
</svg>
