<svg width="164" height="120" viewBox="0 0 164 120" fill="none" xmlns="http://www.w3.org/2000/svg">
<path d="M30.9497 59.0952C34.3211 59.0952 35.9863 60.854 35.9512 64.3772C35.9395 66.393 36.6407 67.4038 38.0547 67.4038H39.0129V68.9171H37.5931C34.1458 68.9171 32.4221 67.4681 32.4221 64.5583V62.934C32.4221 61.374 31.4756 60.591 29.5825 60.591H28.2562C28.969 61.4499 29.3196 62.712 29.3079 64.3772C29.2845 66.837 29.9915 68.3036 31.4288 68.771C31.6158 68.8178 31.61 68.8704 31.4113 68.9171H9.35445C6.61998 68.9171 4.55744 68.5665 3.15515 67.8654C1.34386 66.9773 0.327201 65.5575 0.093486 63.6001C0.0292144 63.1327 0 62.6828 0 62.2504C0 59.9132 0.806317 58.0844 2.41895 56.7698C4.2653 55.2448 6.05322 54.3508 7.78856 54.0938C10.5581 54.158 12.533 54.3917 13.7132 54.7949L13.2867 60.0009L12.9887 60.0359C12.4453 57.9676 11.6273 56.5945 10.5347 55.9226C9.81019 55.4902 9.06815 55.274 8.32026 55.274C7.92878 55.274 7.52563 55.3383 7.12247 55.461C5.96558 55.8174 5.01319 56.688 4.25946 58.0669C3.59337 59.2822 3.26033 60.3865 3.26033 61.3681C3.26033 62.5601 3.59337 63.6527 4.25946 64.6343C4.79116 65.4581 5.56242 66.1476 6.58492 66.7027C7.42045 67.1701 9.16747 67.4038 11.826 67.4038H27.3155C26.2813 66.504 25.7671 65.5575 25.7671 64.5583V62.934C25.7671 61.374 24.8205 60.591 22.9216 60.591H22.3315L23.1612 59.0952H30.9497ZM13.3977 72.6974C13.3977 72.0956 13.6081 71.5873 14.0229 71.1724C14.4436 70.7576 14.9519 70.5531 15.5537 70.5531C16.1556 70.5531 16.6873 70.7576 17.1021 71.1608C17.5228 71.5698 17.7273 72.0781 17.7273 72.6916C17.7273 73.3051 17.5169 73.7901 17.1021 74.1874C16.6814 74.5788 16.1672 74.7775 15.5537 74.7775C14.9402 74.7775 14.4261 74.5847 14.0112 74.1932C13.5964 73.8076 13.3919 73.3051 13.3919 72.6916L13.3977 72.6974ZM18.3992 72.6974C18.3992 72.0956 18.6096 71.5873 19.0244 71.1724C19.4451 70.7576 19.9534 70.5531 20.5552 70.5531C21.1571 70.5531 21.6829 70.7576 22.0978 71.1608C22.5126 71.5698 22.7171 72.0781 22.7171 72.6916C22.7171 73.3051 22.5068 73.7901 22.0919 74.1874C21.6771 74.5847 21.1629 74.7775 20.5611 74.7775C19.9593 74.7775 19.4334 74.5847 19.0186 74.1932C18.6037 73.8076 18.3992 73.3051 18.3992 72.6916V72.6974Z" fill="#C1A994"/>
<path d="M55.6834 68.9342L39.0137 68.9166V67.4033L55.6834 67.4208V68.9342Z" fill="#C1A994"/>
<path d="M72.3514 68.9342L55.6816 68.9166V67.4033L72.3514 67.4208V68.9342Z" fill="#C1A994"/>
<path d="M81.8229 67.3999H83.9088V68.9132H72.3516V67.3999H78.2762V58.3902C78.2762 57.2976 78.212 56.5731 78.0893 56.2283C77.8556 55.5506 77.318 55.1883 76.4825 55.1416V54.902C78.5976 54.6332 80.4381 54.2417 82.004 53.7393C81.8813 55.644 81.817 57.6306 81.817 59.6815V67.3999H81.8229ZM74.9925 72.6994C74.9925 72.0975 75.2029 71.5892 75.6177 71.1744C76.0384 70.7595 76.5468 70.555 77.1486 70.555C77.7504 70.555 78.2762 70.7595 78.6911 71.1627C79.1059 71.5659 79.3104 72.08 79.3104 72.6935C79.3104 73.307 79.1001 73.792 78.6852 74.1893C78.2646 74.5808 77.7562 74.7794 77.1544 74.7794C76.5526 74.7794 76.0267 74.5866 75.6119 74.1951C75.197 73.8095 74.9925 73.307 74.9925 72.6935V72.6994Z" fill="#C1A994"/>
<path d="M100.574 68.9342L83.9043 68.9166V67.4033L100.574 67.4208V68.9342Z" fill="#C1A994"/>
<path d="M117.244 68.9342L100.574 68.9166V67.4033L117.244 67.4208V68.9342Z" fill="#C1A994"/>
<path d="M117.242 67.3985H123.26C121.367 66.1774 120.415 64.4654 120.415 62.251C120.415 60.3696 121.18 58.8504 122.705 57.6935C124.043 56.6827 125.703 56.1218 127.672 56.0108L127.415 52.8147C128.595 52.4233 129.874 52.2071 131.253 52.1662C132.621 52.1428 133.97 52.3123 135.314 52.6804C137.961 53.4166 140.222 54.7896 142.109 56.7937C143.67 58.4823 144.452 60.3287 144.452 62.3503C144.452 62.7593 144.423 63.1683 144.359 63.589C144.049 65.5697 143.033 66.9895 141.297 67.8543C139.895 68.5554 137.827 68.906 135.092 68.906H117.242V67.3927V67.3985ZM125.662 67.3985H131.201C132.445 66.3994 133.065 64.7167 133.065 62.3386C133.065 58.5875 131.633 56.6185 128.764 56.4315C128.519 56.9106 128.309 57.4598 128.139 58.0733L127.847 58.0207L127.736 56.4724C126.357 56.6301 125.329 57.3196 124.651 58.5408C124.084 59.5399 123.804 60.7903 123.804 62.3036C123.804 64.7167 124.423 66.4111 125.668 67.3985H125.662ZM133.503 67.381C135.507 67.3226 136.962 67.0421 137.862 66.5513C138.884 65.9846 139.615 65.3185 140.059 64.5589C140.415 63.9337 140.596 63.0047 140.596 61.7719C140.596 61.4914 140.584 61.1817 140.561 60.8487C140.462 59.1134 139.971 57.6059 139.083 56.3263C138.125 54.9708 136.839 54.0768 135.227 53.6328C134.625 53.4633 134.046 53.3757 133.491 53.3757C131.557 53.3757 130.061 54.2579 129.004 56.0166C131.02 56.116 132.702 56.6769 134.04 57.6994C135.554 58.8563 136.313 60.4046 136.313 62.3503C136.313 64.518 135.378 66.1949 133.509 67.3869L133.503 67.381Z" fill="#C1A994"/>
<path d="M149.578 56.3619C151.179 54.7376 153.154 53.9255 155.502 53.9255C157.851 53.9255 159.82 54.8603 161.486 56.7301C163.098 58.5297 163.905 60.5922 163.905 62.9352C163.905 65.7923 162.117 67.7848 158.535 68.9183H149.952C148.871 68.9183 148.24 68.1003 148.07 66.4643C148.649 67.0895 149.21 67.405 149.753 67.405H157.191C159.259 67.405 160.405 65.9851 160.627 63.1397C160.481 61.2174 160.031 59.447 159.277 57.8227C158.278 55.6199 156.975 54.5156 155.362 54.5156C154.848 54.5156 154.311 54.7084 153.767 55.0882C153.218 55.468 152.832 55.9004 152.616 56.3795C152.371 56.9112 152.248 57.5013 152.248 58.1499C152.248 58.9036 152.377 59.4411 152.634 59.7742C153.101 60.3877 153.346 60.7149 153.37 60.7499C153.323 60.8142 153.119 60.861 152.762 60.896C152.306 60.8843 151.886 60.8785 151.506 60.8785C150.852 60.8785 149.741 60.9135 148.164 60.9895V60.7499C148.731 60.5922 149.116 60.3643 149.327 60.0663C149.537 59.7683 149.642 59.3243 149.642 58.7166V58.033C149.642 57.4779 149.625 56.917 149.589 56.3503L149.578 56.3619ZM152.99 49.3856C152.99 48.7721 153.2 48.2579 153.615 47.8547C154.03 47.4516 154.544 47.2471 155.146 47.2471C155.748 47.2471 156.274 47.4516 156.689 47.8547C157.103 48.2637 157.308 48.7721 157.308 49.3856C157.308 49.9991 157.098 50.4899 156.683 50.8813C156.262 51.2728 155.754 51.4715 155.152 51.4715C154.55 51.4715 154.024 51.2787 153.609 50.8872C153.195 50.5016 152.99 49.9991 152.99 49.3797V49.3856Z" fill="#C1A994"/>
<path d="M81.3616 46.7161H82.461L115.47 18.9687C115.503 18.9304 115.536 18.914 115.536 18.914C115.695 18.7991 115.716 18.7772 115.711 18.7389V18.2959C115.711 18.2959 115.711 18.2521 115.711 18.2303V18.1756L104.717 0H104.444C104.444 0 104.285 0 104.17 0H59.7675C59.6527 0 59.3792 0 59.3792 0C59.2698 0.213315 59.0893 0.525084 59.0893 0.525084L48.1172 18.099V18.1537C48.1172 18.1537 48.1172 18.1974 48.1172 18.2193V18.46C48.1172 18.4983 48.1172 18.5366 48.1172 18.5749C48.1172 18.5967 48.1172 18.6241 48.1172 18.646C48.1445 18.6842 48.1719 18.7225 48.1992 18.7608L81.3616 46.7161ZM94.2536 2.6473L103.891 2.74028L113.069 16.6878L84.7091 2.6473H94.2536ZM112.199 17.7818H95.528L84.2879 3.27631L112.199 17.7818ZM111.729 19.1437L84.6051 30.8651L95.528 19.1437H111.729ZM83.1338 3.34741L94.3302 18.4217L82.5595 31.0128L83.1338 3.34741ZM82.5321 33.2389L110.996 20.9377L82.4337 44.9713L82.5267 33.2389H82.5321ZM52.7226 20.9432L81.1702 33.2444L81.389 44.9767L52.7281 20.9432H52.7226ZM52.0334 19.1437H68.2345L79.1574 30.8651L52.0334 19.1437ZM81.1976 31.0565L69.416 18.4655L80.6834 3.35288L81.1976 31.062V31.0565ZM68.1579 17.7818H51.5138L79.4254 3.27631L68.1579 17.7818ZM60.1996 2.74575L78.9331 2.6473L50.6168 16.6878L60.1996 2.74575Z" fill="#C1A994"/>
<path d="M22.2341 83.7842V84.5499H13.7671V119.435H8.4123V84.5499H0V83.7842H22.2341Z" fill="#C1A994"/>
<path d="M37.281 91.6932C38.911 91.6932 40.3604 92.0597 41.6185 92.7926C42.8765 93.5255 43.9376 94.5155 44.8073 95.7735C45.6769 97.0316 46.3278 98.5084 46.7709 100.209C47.2139 101.91 47.4327 103.726 47.4327 105.668V119.441H42.1271V105.668C42.1271 103.83 42.0177 102.113 41.7935 100.516C41.5692 98.9186 41.2137 97.5238 40.7214 96.3314C40.2292 95.1445 39.5728 94.1983 38.7578 93.5037C37.9429 92.809 36.9364 92.459 35.7495 92.459C34.6939 92.459 33.7914 92.7379 33.0475 93.3013C32.2982 93.8646 31.6801 94.6249 31.1879 95.5985C30.6956 96.5666 30.3127 97.7262 30.0392 99.0663C29.7657 100.412 29.5962 101.845 29.5306 103.376V119.441H24.1758V81.7002H29.5306V96.4901C30.2088 95.0297 31.1605 93.8646 32.3857 92.995C33.6109 92.1253 35.2409 91.6932 37.281 91.6932Z" fill="#C1A994"/>
<path d="M89.7622 91.6936C91.3922 91.6936 92.8471 92.0601 94.1215 92.793C95.396 93.5259 96.468 94.5269 97.3322 95.8013C98.2019 97.0757 98.8528 98.558 99.2958 100.237C99.7388 101.916 99.9576 103.732 99.9576 105.668V119.441H94.6029V105.668C94.6029 103.831 94.4935 102.108 94.2692 100.494C94.045 98.8807 93.6894 97.475 93.1972 96.2881C92.7049 95.0957 92.0595 94.1549 91.2609 93.4548C90.4623 92.7602 89.4669 92.4429 88.28 92.514C87.4322 92.5469 86.5625 92.886 85.6819 93.5314C84.7958 94.1768 83.9808 95.2653 83.2315 96.7968H83.1823C82.8431 97.4093 82.3673 98.197 81.7547 99.1706C81.1421 100.139 80.524 101.123 79.895 102.13C79.266 103.136 78.6534 104.066 78.0572 104.936C77.461 105.8 77.0125 106.423 76.7062 106.795C76.296 107.271 75.7271 107.917 74.9997 108.731C74.2668 109.546 73.4518 110.422 72.5493 111.357C71.6468 112.292 70.6896 113.244 69.6668 114.212C68.6494 115.18 67.643 116.055 66.6585 116.837C65.674 117.62 64.7386 118.276 63.8526 118.801C62.9665 119.326 62.2007 119.611 61.5553 119.643C61.2162 119.709 60.8826 119.764 60.5598 119.797C60.2371 119.829 59.9035 119.846 59.5644 119.846C58.6127 119.846 57.5898 119.753 56.5068 119.567C55.4184 119.381 54.4339 119.031 53.5478 118.522C52.6617 118.013 51.9233 117.308 51.3271 116.405C50.7309 115.503 50.4355 114.36 50.4355 112.965C50.4355 112.046 50.6981 111.182 51.2286 110.367C51.7537 109.552 52.4265 108.803 53.2415 108.124C54.0564 107.446 54.9425 106.85 55.8942 106.341C56.846 105.833 57.7484 105.406 58.5962 105.067C59.8871 104.558 61.0521 103.995 62.0913 103.382C63.1306 102.77 64.0112 102.168 64.7441 101.572C65.477 100.976 66.0349 100.423 66.4288 99.9144C66.8171 99.4058 67.014 99.012 67.014 98.7385H67.0632C67.0632 98.5689 67.0523 98.4267 67.0359 98.3064C67.0195 98.186 67.0085 98.0602 67.0085 97.9235C66.9046 95.9872 66.4397 94.6253 65.6083 93.8432C64.7769 93.061 63.4916 92.6672 61.7577 92.6672C60.4997 92.6672 59.362 92.8367 58.3392 93.1759C57.3218 93.515 56.4248 93.9307 55.6591 94.4284C54.8933 94.9207 54.2752 95.4239 53.7994 95.9325C53.3235 96.4412 53.0008 96.8679 52.8312 97.207V95.7302C54.3627 94.3354 55.8395 93.3509 57.2671 92.7711C58.6947 92.1913 60.1715 91.9069 61.703 91.9069C62.8571 91.9069 64.0659 92.0163 65.3239 92.2406C66.5819 92.4648 67.7305 92.8367 68.7643 93.3618C69.8035 93.8869 70.6568 94.587 71.3405 95.4512C72.0187 96.3209 72.3578 97.4148 72.3578 98.7385V109.196C73.7526 107.566 75.1966 105.696 76.6953 103.585V81.7061H82.05V96.4959C82.7283 95.0355 83.68 93.8705 84.9052 93.0008C86.1304 92.1312 87.7439 91.6991 89.7513 91.6991L89.7622 91.6936ZM67.0632 100.718C66.385 101.26 65.5317 101.927 64.5144 102.709C63.497 103.492 62.4906 104.104 61.5061 104.547C60.352 105.056 59.4003 105.608 58.6509 106.205C57.9016 106.801 57.3164 107.435 56.8897 108.119C56.4631 108.797 56.1732 109.541 56.0255 110.34C55.8724 111.138 55.7958 111.98 55.7958 112.867C55.7958 114.398 56.2115 115.705 57.0429 116.794C57.8743 117.882 58.919 118.56 60.177 118.834C60.2426 118.867 60.3793 118.883 60.5872 118.883C60.7567 118.916 60.9755 118.932 61.249 118.932C62.4742 118.659 63.6119 118.167 64.6675 117.456C65.1762 116.843 65.5536 116.247 65.7888 115.672C66.1279 114.89 66.385 114.086 66.5546 113.249C66.7241 112.418 66.8445 111.636 66.9101 110.903C66.9757 110.17 67.0195 109.552 67.0359 109.043C67.0523 108.535 67.0632 108.228 67.0632 108.124V100.729V100.718ZM67.1179 117.445C68.0697 116.695 68.9886 115.93 69.8746 115.147C70.7607 114.365 71.6249 113.534 72.4727 112.648V119.43H70.3286L70.1262 119.075C69.4097 117.986 68.4088 117.445 67.1179 117.445ZM76.7062 108.009C77.4227 107.123 78.1666 106.199 78.9488 105.231C79.7309 104.263 80.5295 103.218 81.3445 102.091C81.4812 101.922 81.607 101.741 81.7273 101.555C81.8477 101.369 81.9571 101.172 82.061 100.97V119.43H76.7062V108.004V108.009Z" fill="#C1A994"/>
<path d="M124.949 119.436H122.805C122.433 118.687 121.919 118.167 121.274 117.883C120.628 117.593 119.983 117.451 119.337 117.451C118.555 117.451 117.893 117.588 117.346 117.861C116.734 118.441 116.001 118.889 115.153 119.212C114.305 119.535 113.283 119.693 112.096 119.693C111.144 119.693 110.121 119.6 109.038 119.414C107.95 119.228 106.965 118.878 106.079 118.37C105.193 117.861 104.455 117.161 103.858 116.28C103.262 115.394 102.967 114.24 102.967 112.813C102.967 111.894 103.229 111.029 103.76 110.214C104.285 109.4 104.958 108.65 105.773 107.972C106.588 107.294 107.474 106.698 108.425 106.189C109.377 105.68 110.28 105.254 111.127 104.914C112.386 104.439 113.518 103.903 114.519 103.306C115.52 102.71 116.389 102.125 117.117 101.545C117.85 100.965 118.424 100.424 118.851 99.9152C119.277 99.4065 119.523 98.9963 119.589 98.69V98.5861C119.589 96.3435 119.162 94.7683 118.315 93.8658C117.467 92.9633 116.121 92.5148 114.283 92.5148C113.025 92.5148 111.888 92.6843 110.865 93.0234C109.848 93.3626 108.951 93.7783 108.185 94.2705C107.419 94.7628 106.801 95.266 106.325 95.7747C105.849 96.2833 105.527 96.71 105.357 97.0491V95.5723C106.889 94.2104 108.365 93.2368 109.793 92.6406C111.22 92.0444 112.697 91.749 114.229 91.749C115.383 91.749 116.592 91.8584 117.85 92.0827C119.108 92.3069 120.262 92.6789 121.317 93.2039C122.373 93.729 123.237 94.4291 123.916 95.2933C124.594 96.1575 124.933 97.2569 124.933 98.5806V119.442L124.949 119.436ZM119.594 100.566C118.949 101.146 118.107 101.813 117.068 102.579C116.028 103.345 115.016 103.946 114.032 104.389C112.878 104.898 111.926 105.45 111.177 106.047C110.427 106.643 109.842 107.288 109.415 107.983C108.989 108.678 108.699 109.421 108.551 110.204C108.398 110.986 108.322 111.817 108.322 112.703C108.322 113.589 108.464 114.355 108.754 115.099C109.044 115.843 109.432 116.499 109.93 117.062C110.422 117.626 111.002 118.058 111.664 118.364C112.325 118.671 113.031 118.824 113.78 118.824C114.836 118.824 115.7 118.567 116.384 118.058C117.062 117.549 117.614 116.904 118.041 116.122C118.468 115.34 118.79 114.492 119.009 113.573C119.228 112.654 119.381 111.795 119.469 110.997C119.551 110.198 119.594 109.509 119.594 108.929V100.566Z" fill="#C1A994"/>
<path d="M143.464 91.9464C145.093 91.9464 146.548 92.3128 147.823 93.0458C149.097 93.7787 150.169 94.7796 151.034 96.0541C151.898 97.3285 152.554 98.8162 152.997 100.517C153.44 102.218 153.659 104.034 153.659 105.976C153.659 107.918 153.413 109.734 152.921 111.435C152.428 113.136 151.728 114.623 150.831 115.898C149.929 117.172 148.851 118.179 147.593 118.906C146.335 119.639 144.957 120 143.464 120C142.102 120 140.887 119.82 139.815 119.464C138.743 119.109 137.819 118.605 137.037 117.96C136.763 117.823 136.468 117.714 136.145 117.626C135.822 117.544 135.472 117.5 135.1 117.5C134.521 117.5 133.952 117.643 133.394 117.933C132.831 118.222 132.366 118.726 131.994 119.437H129.85V81.6963H135.204V96.3877C136.052 95.0258 137.157 93.9483 138.519 93.1497C139.875 92.3511 141.527 91.9518 143.464 91.9518V91.9464ZM141.987 119.081C143.174 119.081 144.169 118.731 144.968 118.036C145.766 117.342 146.412 116.396 146.904 115.209C147.396 114.022 147.752 112.627 147.976 111.024C148.195 109.427 148.31 107.726 148.31 105.927C148.31 104.127 148.2 102.377 147.976 100.774C147.752 99.1772 147.396 97.7825 146.904 96.5901C146.412 95.3977 145.766 94.4569 144.968 93.7568C144.169 93.0622 143.174 92.7121 141.987 92.7121C140.931 92.7121 139.996 93.002 139.181 93.5763C138.366 94.1561 137.677 94.9383 137.113 95.9228C136.55 96.9073 136.118 98.0833 135.812 99.4398C135.505 100.802 135.303 102.262 135.199 103.826V108.011C135.303 109.575 135.505 111.03 135.812 112.37C136.118 113.715 136.55 114.886 137.113 115.887C137.677 116.893 138.36 117.67 139.181 118.233C139.996 118.797 140.931 119.076 141.987 119.076V119.081Z" fill="#C1A994"/>
<path d="M160.347 89.1943C159.565 89.1943 158.903 88.9153 158.356 88.3519C157.814 87.7886 157.541 87.1213 157.541 86.3391C157.541 85.557 157.82 84.9006 158.383 84.3755C158.947 83.8504 159.614 83.5879 160.396 83.5879C161.178 83.5879 161.791 83.845 162.332 84.3536C162.743 84.7639 163.005 85.2452 163.126 85.8086C163.246 86.3719 163.186 86.9244 162.945 87.4659C162.743 87.9745 162.398 88.3957 161.928 88.7184C161.452 89.0411 160.927 89.1997 160.347 89.1997V89.1943ZM157.694 119.436V91.8963H163.049V119.436H157.694Z" fill="#C1A994"/>
</svg>
