<svg width="120" height="120" viewBox="0 0 120 120" fill="none" xmlns="http://www.w3.org/2000/svg">
<g clip-path="url(#clip0_547_1682)">
<path d="M59.998 120C93.1351 120 119.998 93.1371 119.998 60C119.998 26.8629 93.1351 0 59.998 0C26.861 0 -0.00195312 26.8629 -0.00195312 60C-0.00195312 93.1371 26.861 120 59.998 120Z" fill="white"/>
<path d="M44.6956 28.8701L45.3278 30.8048H47.3591L45.7142 31.996L46.3405 33.9306L44.6956 32.7365L43.0537 33.9306L43.683 31.996L42.0352 30.8048H44.0693L44.6956 28.8701Z" fill="#006636"/>
<path d="M75.2962 28.8701L75.9226 30.8048H77.9538L76.3118 31.996L76.9411 33.9306L75.2962 32.7365L73.6514 33.9306L74.2806 31.996L72.6357 30.8048H74.667L75.2962 28.8701Z" fill="#006636"/>
<path d="M67.1195 35.0542C67.0083 35.0542 65.9019 35.0864 65.1322 36.1927C65.1322 36.1927 65.4102 34.6971 66.2502 33.8367C66.1273 33.9362 65.1 34.8054 64.7195 36.0669C64.7195 36.0669 64.6639 35.6308 64.898 35.2854C64.898 35.2854 64.74 35.3615 64.62 35.6074C64.62 35.6074 64.6961 34.6035 65.0239 34.1908C65.0239 34.1908 65.2932 33.7108 65.2697 33.2542C65.2697 33.2542 65.1937 32.8854 65.381 32.742C65.381 32.742 65.4922 32.6074 65.4922 32.3615C65.4922 32.3615 65.8727 32.2035 66.0161 31.4249C66.0161 31.4249 66.1595 31.1469 65.94 30.822C65.94 30.822 65.7732 29.7859 65.94 29.3937C65.94 29.3937 65.9078 29.9059 66.1302 30.1664L66.2971 30.3098C66.2971 30.3098 66.7185 29.8532 66.5429 29.1391L66.5195 28.6152C66.5195 28.6152 66.4434 28.0796 66.1507 27.9332C66.1507 27.9332 65.9049 27.6991 65.8141 27.4445C65.8141 27.4445 65.4249 26.9323 65.0561 26.8737C65.0561 26.8737 64.6346 26.6279 64.5439 26.4054C64.5439 26.4054 64.14 25.782 63.1624 26.0601C63.1624 26.0601 62.8697 26.2854 62.5595 26.1362H61.778C61.778 26.1362 61.3332 25.9342 60.7858 25.9342C60.7858 25.9342 60.0366 25.8903 59.8697 26.1449C59.8697 26.1449 59.7936 26.2562 59.6444 26.101C59.5097 25.9576 59.0649 25.8084 58.4941 25.8669C58.4941 25.8669 58.2161 25.8113 58.0493 25.5742C58.0493 25.5742 57.8239 25.3635 57.5136 25.5654C57.5136 25.5654 57.101 25.7001 56.9429 25.4659C56.9429 25.4659 56.34 25.2757 56.2376 24.863C56.2376 24.863 55.5117 23.0981 53.6619 23.2006C53.6619 23.2006 52.8893 23.0425 52.0112 24.462C52.0112 24.462 51.2532 25.343 51.6541 25.8347C51.6541 25.8347 51.9088 26.2386 52.3683 25.9693C52.3683 25.9693 52.9595 25.5567 53.3722 25.8786C53.3722 25.8786 54.0424 26.382 53.861 26.9381C53.861 26.9381 53.4483 27.8747 53.8697 28.2757C53.8697 28.2757 54.0132 28.4191 53.8258 28.5449C53.8258 28.5449 53.6678 29.0688 54.3146 29.6952C54.3146 29.6952 54.5605 29.9059 54.3702 30.1635C54.18 30.4181 54.4463 30.6318 54.5049 30.6757C54.5722 30.7079 54.5049 30.8659 54.4815 31.0123C54.4493 31.1557 54.6249 31.2903 54.7156 31.3693C54.7156 31.3693 54.7156 32.0396 55.1722 32.663C55.1722 32.663 55.7078 33.4006 55.6756 34.9401L54.9849 33.2337H54.9176C54.9176 33.2337 55.5878 34.9401 55.5322 35.944C55.5322 35.944 55.3419 35.5401 55.1868 35.3967C55.219 35.4874 55.4122 35.9674 55.3449 36.3215C55.3449 36.3215 54.9995 35.0835 54.0834 34.3693C54.1741 34.4923 54.9176 35.5079 54.9 36.0991C54.9 36.0991 54.42 35.3937 53.6737 35.1742C53.6737 35.1742 54.5663 35.8884 54.5897 36.2454C54.5897 36.2454 54.2005 35.742 53.4863 35.7567C53.4863 35.7567 54.1332 35.9908 54.3117 36.4825H65.738C65.738 36.4825 65.8727 36.0376 66.5517 35.7567C66.4288 35.7654 65.9283 35.8679 65.659 36.2249C65.6561 36.2249 65.9341 35.341 67.1195 35.0542ZM52.6317 24.3508C52.6551 24.184 53.0005 23.9937 53.0005 23.9937C52.8424 24.5176 52.6317 24.3508 52.6317 24.3508ZM54.9088 25.9459C54.9088 25.9459 54.0073 25.542 54.0746 24.8952C54.1302 24.2484 53.7293 23.8006 53.7293 23.8006C54.2093 23.944 54.3322 24.9186 54.3322 24.9186C54.3556 25.3225 54.6541 25.2406 54.6541 25.2406L54.6219 24.2132C54.8766 24.4591 54.9439 24.8045 54.9585 24.8367C55.0873 25.1001 54.9088 25.9459 54.9088 25.9459ZM56.9283 35.8123C56.9283 35.8123 56.7849 34.7293 56.659 34.6064C56.659 34.6064 56.7819 35.7245 56.6034 35.944C56.6034 35.944 56.4366 35.622 56.4366 35.0747V33.064C56.4366 33.064 56.5478 32.8386 56.5712 32.5079C56.5712 32.5079 56.8258 32.9762 56.9283 33.5118C56.9283 33.5118 57.0161 35.464 56.9283 35.8123ZM63.0132 34.7381C62.8902 34.8727 62.4893 35.8562 62.4893 35.8562C62.3312 35.0542 62.7673 33.2571 62.7673 33.2571C62.3546 33.9713 62.1293 35.3088 62.1293 35.3088C62.1527 34.6181 61.8834 34.024 61.8161 33.8923C62.0619 35.1303 61.74 36.2132 61.74 36.2132C61.6961 35.5898 61.3595 34.943 61.3595 34.943C61.5176 35.9469 61.2922 35.903 61.2922 35.903C61.3156 34.7088 60.7888 33.4942 60.7888 33.4942C61.058 34.5098 60.8444 35.903 60.8444 35.903L60.8005 34.9196C60.7244 35.5225 60.6102 35.701 60.6102 35.701C60.7097 35.0308 60.4317 34.3957 60.4317 34.3957C60.4873 35.9791 60.1185 36.1371 60.1185 36.1371C60.0863 35.6688 60.2619 35.3557 60.2971 35.2884C60.0863 35.4113 59.9283 35.7771 59.9283 35.7771C59.9722 35.1625 60.3644 33.8688 60.4171 33.6815C59.8258 34.4191 59.5244 35.9469 59.5244 35.9469C59.4483 34.7966 60.2063 33.6347 60.2971 33.503C59.3137 34.3518 59.1585 35.7245 59.1585 35.7245C59.0824 34.9752 58.6551 34.141 58.5556 33.9508C59.0239 35.221 58.8102 35.9469 58.8102 35.9469C58.7868 35.6015 58.6434 35.3996 58.6434 35.3996C58.6756 35.821 58.5995 36.0903 58.5995 36.0903C58.5556 35.4757 57.9761 33.904 57.9088 33.7108C58.1195 34.381 58.1341 35.8064 58.1341 36.0523C58.1107 35.7069 57.6776 35.0601 57.6776 35.0601C57.7332 34.6474 57.821 33.7459 57.821 33.7459C57.7976 33.2425 57.979 33.0201 57.979 33.0201C58.1224 32.9645 58.2571 32.6162 58.2571 32.6162C58.38 32.3615 58.5585 32.4727 58.5585 32.4727C58.9624 32.6308 59.4161 32.3732 59.4161 32.3732C59.861 32.1391 60.1741 32.3967 60.1741 32.3967C60.5956 32.6074 60.9761 32.5079 60.9761 32.5079C61.1663 32.4084 61.6902 32.4757 61.6902 32.4757C62.0707 32.4757 62.3488 32.2064 62.3488 32.2064C62.5829 32.0045 62.7176 32.2064 62.7176 32.2064L63.019 32.5079C63.0102 32.6513 63.1537 32.8298 63.1537 32.8298C63.2766 33.7927 63.0132 34.7381 63.0132 34.7381ZM64.0054 34.9049L63.6015 35.4845C63.5927 34.381 64.4034 32.3937 64.4034 32.3937C64.5176 33.5469 64.0054 34.9049 64.0054 34.9049Z" fill="#006636"/>
<path d="M113.267 80.5156C105.031 101.905 84.2885 117.075 60.0046 117.075C35.7207 117.075 14.9783 101.908 6.74512 80.5156H23.349C30.5256 93.3381 44.2495 102.007 60.0076 102.007C75.7656 102.007 89.4895 93.3381 96.6661 80.5156H113.267Z" fill="#006536"/>
<path d="M115.484 80.5161C107.136 103.059 85.4104 119.171 60.0025 119.171C34.5947 119.171 12.8689 103.059 4.5245 80.5161H3.62304C11.9908 103.547 34.0708 120.005 60.0084 120.005C85.9401 120.005 108.026 103.547 116.394 80.5161H115.484ZM59.9996 0.00488281C34.0679 0.00488281 11.985 16.4624 3.61426 39.4937H4.51572C12.866 16.9512 34.5918 0.839029 59.9967 0.839029C85.4016 0.839029 107.133 16.9512 115.478 39.4937H116.379C108.017 16.4624 85.9372 0.00488281 59.9996 0.00488281Z" fill="#006536"/>
<path d="M113.262 39.4926H96.6583C89.4817 26.6702 75.7578 18.0009 59.9997 18.0009C44.2417 18.0009 30.5178 26.6702 23.3412 39.4926H6.73438C14.9705 18.1033 35.7158 2.93652 59.9968 2.93652C84.2778 2.93652 105.026 18.1033 113.262 39.4926Z" fill="#006536"/>
<path d="M120.005 60.0066C120.005 66.7471 118.887 73.23 116.835 79.2768H3.16878C1.11415 73.23 -0.000976562 66.7471 -0.000976562 60.0066C-0.000976562 53.2661 1.11707 46.7832 3.16878 40.7363H116.835C118.887 46.7832 120.005 53.2661 120.005 60.0066Z" fill="#006536"/>
<path d="M52.9987 23.9893C52.8406 24.5132 52.6299 24.3463 52.6299 24.3463C52.6533 24.1824 52.9987 23.9893 52.9987 23.9893Z" fill="white"/>
<path d="M38.1055 62.141C38.1055 65.463 40.2538 66.4171 40.2538 66.4171H35.9777C34.7835 66.4171 33.8294 65.4484 33.8294 64.2688V59.9927C33.8294 58.9274 33.1123 57.8445 31.6811 57.8445H29.5328V66.4113H12.3786C8.18157 66.4113 6.03621 63.3264 5.95425 60.1625C5.87523 56.8874 8.02059 53.5654 12.3786 53.5654H20.963L18.8147 57.8415H12.3757C10.9621 57.8415 10.245 58.9245 10.245 59.9898C10.245 61.0728 10.9621 62.1381 12.3757 62.1381H25.2391V53.5713H31.6782C35.9543 53.5713 38.1025 56.782 38.1025 59.9957V62.141H38.1055ZM20.966 68.1176L23.5416 70.6932L20.966 73.2688L18.8206 71.1235L16.6723 73.2718L14.0967 70.6962L16.6723 68.1206L18.8206 70.2688L20.966 68.1176Z" fill="#FCB813"/>
<path d="M48.803 53.5695V66.4183H40.2362C39.042 66.4183 38.0879 65.4641 38.0879 64.27V62.1392H44.5123V55.7148C44.5123 54.5383 45.4811 53.5666 46.6606 53.5666H48.8059V53.5695H48.803ZM43.4762 51.8514L40.9152 49.2905L43.4762 46.7148L45.6245 48.8631L47.7728 46.7148L50.3484 49.2905L47.7728 51.8514L45.6245 49.7031L43.4762 51.8514Z" fill="#FCB813"/>
<path d="M72.91 62.141L70.7793 66.4171H50.9383C49.7442 66.4171 48.79 65.463 48.79 64.2688V62.1381H72.91V62.141ZM77.2008 62.141C77.2008 65.463 79.3491 66.4318 79.3491 66.4318H75.0583C73.8817 66.4318 72.9276 65.4776 72.9276 64.2835V60.0074C72.9276 58.9245 72.2105 57.8591 70.7793 57.8591H53.0661C53.0661 57.8591 55.2144 55.7108 55.2144 53.5684H70.7793C75.0554 53.5684 77.2037 56.7791 77.2037 60.0074L77.2008 62.141Z" fill="#FCB813"/>
<path d="M86.3255 53.5713V66.4201H77.7586C76.5645 66.4201 75.6104 65.4659 75.6104 64.2718V62.141H82.0347V55.7167C82.0347 54.5401 83.0035 53.5684 84.183 53.5684H86.3284V53.5713H86.3255ZM80.5069 68.0708L82.6552 70.2191L84.8035 68.0708L87.3791 70.6318L84.8035 73.2074L82.6552 71.0591L80.5069 73.2074L77.946 70.6318L80.5069 68.0708Z" fill="#FCB813"/>
<path d="M88.4754 66.4171C87.2988 66.4025 86.3125 65.4484 86.3125 64.2688V62.1381H90.6208V55.7137C90.6208 54.5371 91.5749 53.5654 92.7515 53.5654H94.8998V66.4142H88.4754V66.4171ZM95.3271 70.7284L92.7515 73.304L90.1905 70.7284L92.7515 68.1528L95.3271 70.7284Z" fill="#FCB813"/>
<path d="M111.901 62.1178C111.901 65.4397 114.049 66.4085 114.049 66.4085H107.61V64.2602C107.61 65.4543 106.656 66.4085 105.461 66.4085H99.0371V62.1324H107.604V59.9841C107.604 58.9012 106.89 57.8358 105.456 57.8358H99.0312C99.0312 57.8358 101.18 55.6875 101.18 53.5451H105.456C109.746 53.5451 111.895 56.7558 111.895 59.9841V62.1148H111.901V62.1178ZM103.328 51.8299L100.752 49.269L103.328 46.6934L105.889 49.269L103.328 51.8299Z" fill="#FCB813"/>
<path d="M21.4213 28.9741C20.0633 27.6658 20.0428 25.6639 21.3862 24.2736C22.7179 22.8922 24.7111 22.8365 26.0721 24.1507C27.436 25.4619 27.4506 27.4609 26.1189 28.8395C24.7755 30.2356 22.7765 30.2824 21.4213 28.9741ZM25.4457 24.7975C24.4213 23.8083 22.9433 23.8346 21.9716 24.8385C20.9882 25.857 21.0174 27.3351 22.0448 28.3244C23.0691 29.3136 24.5472 29.2873 25.5306 28.2687C26.4994 27.2678 26.4701 25.7868 25.4457 24.7975Z" fill="#FCB813"/>
<path d="M30.2051 21.2013L32.049 23.493L31.408 24.0081L31.0041 23.5047C31.0539 24.0286 30.8022 24.5642 30.2197 25.0325C29.3768 25.7115 28.4753 25.6823 27.9427 25.0237C27.4539 24.415 27.4363 23.6013 28.5485 22.7115L29.6168 21.854L29.5085 21.7193C29.0402 21.1398 28.4431 21.0696 27.7729 21.6052C27.331 21.9593 27.009 22.4803 26.9212 22.9633L26.2275 22.6706C26.3622 22.0472 26.7778 21.4296 27.3719 20.9496C28.3934 20.1242 29.371 20.1623 30.2051 21.2013ZM30.4422 22.8754L30.0178 22.3428L28.9788 23.1798C28.3144 23.7184 28.3349 24.134 28.5953 24.4559C28.8997 24.8364 29.3973 24.8247 29.9095 24.412C30.4158 24.0052 30.6266 23.4462 30.4422 22.8754Z" fill="#FCB813"/>
<path d="M32.3102 22.6578L32.2282 21.8763C32.7287 21.8997 33.3873 21.7241 33.9053 21.3788C34.5756 20.9397 34.719 20.5505 34.4907 20.2051C33.8936 19.289 31.8887 21.7358 30.8234 20.1144C30.3434 19.3856 30.6624 18.4724 31.6868 17.7993C32.2048 17.4597 32.8839 17.211 33.3843 17.2139L33.4575 18.0012C32.9395 18.0012 32.4858 18.1768 32.0936 18.4344C31.4585 18.85 31.3092 19.289 31.5199 19.611C32.1492 20.571 34.1658 18.13 35.2048 19.7105C35.6878 20.448 35.3336 21.3524 34.2712 22.0461C33.6097 22.488 32.8165 22.7105 32.3102 22.6578Z" fill="#FCB813"/>
<path d="M33.415 15.0197C33.257 14.7387 33.3506 14.3933 33.6433 14.2294C33.936 14.0655 34.2726 14.1592 34.4277 14.4314C34.5916 14.7182 34.5038 15.0606 34.2082 15.2304C33.9155 15.3943 33.5731 15.3006 33.415 15.0197ZM34.2901 16.2577L35.0453 15.8362L37.4335 20.0801L36.6784 20.5016L34.2901 16.2577Z" fill="#FCB813"/>
<path d="M37.8586 19.221L37.885 18.4366C38.3767 18.5302 39.0528 18.4395 39.6177 18.1731C40.3406 17.8307 40.5367 17.4619 40.3611 17.0873C39.8899 16.101 37.5747 18.2492 36.7406 16.499C36.366 15.7117 36.805 14.8512 37.9113 14.3244C38.4703 14.058 39.1786 13.9058 39.6703 13.9761L39.6352 14.7663C39.123 14.6961 38.6489 14.8073 38.2245 15.0092C37.5396 15.3312 37.3289 15.7497 37.4957 16.098C37.9874 17.1341 40.3201 14.9917 41.1308 16.701C41.5084 17.497 41.0342 18.3429 39.8869 18.8873C39.1699 19.2297 38.3562 19.341 37.8586 19.221Z" fill="#FCB813"/>
<path d="M42.6846 10.7126L43.5451 10.4463L45.1987 15.8287L48.4621 14.8248L48.6963 15.5887L44.5694 16.859L42.6846 10.7126Z" fill="#FCB813"/>
<path d="M47.7647 9.32766C47.6944 9.01449 47.8818 8.70718 48.2096 8.63693C48.5374 8.56376 48.8359 8.75108 48.9032 9.05547C48.9764 9.37742 48.7949 9.68181 48.4613 9.75498C48.1364 9.82815 47.8349 9.64083 47.7647 9.32766ZM48.2447 10.7647L49.0905 10.5745L50.1559 15.3277L49.31 15.5179L48.2447 10.7647Z" fill="#FCB813"/>
<path d="M54.9551 9.60156L53.5941 14.7235L52.719 14.8523L49.9443 10.3391L50.837 10.2074L53.0263 13.8308L54.118 9.72449L54.9551 9.60156Z" fill="#FCB813"/>
<path d="M60.1995 12.0929L56.3303 12.2597C56.4737 13.1085 57.1761 13.65 58.1186 13.6061C58.6747 13.5797 59.1371 13.369 59.4678 12.9593L59.9713 13.5066C59.5615 14.0422 58.9176 14.3407 58.1244 14.3758C56.5849 14.4432 55.5137 13.451 55.4522 11.9963C55.3878 10.5563 56.3625 9.4734 57.7381 9.41194C59.1137 9.35047 60.1381 10.3222 60.2054 11.8149C60.2113 11.9027 60.2025 12.011 60.1995 12.0929ZM56.301 11.6305L59.3595 11.4958C59.2337 10.6822 58.6044 10.129 57.7703 10.1671C56.942 10.2022 56.3537 10.8022 56.301 11.6305Z" fill="#FCB813"/>
<path d="M60.6045 13.7294L61.0055 13.0504C61.3918 13.3665 62.0299 13.6123 62.6503 13.6475C63.4494 13.6914 63.7947 13.4631 63.8211 13.0504C63.8825 11.9587 60.8152 12.7372 60.9206 10.7997C60.9674 9.93039 61.7664 9.38307 62.9869 9.45331C63.6074 9.48844 64.2982 9.69039 64.6991 9.99185L64.2923 10.6709C63.8767 10.3636 63.4055 10.2348 62.9372 10.2114C62.1821 10.1704 61.7986 10.4309 61.7752 10.8201C61.7108 11.9645 64.7869 11.1977 64.6816 13.0884C64.6347 13.9694 63.8123 14.4845 62.5391 14.4172C61.7518 14.3645 60.9821 14.0748 60.6045 13.7294Z" fill="#FCB813"/>
<path d="M68.0744 14.667C67.7817 14.8602 67.3778 14.9129 66.9915 14.8631C66.0373 14.7314 65.5661 14.1197 65.6978 13.148L66.0637 10.4992L65.2617 10.3909L65.3612 9.67095L66.1632 9.77924L66.3066 8.72266L67.1642 8.83973L67.0207 9.89632L68.3788 10.0807L68.2793 10.8007L66.9212 10.6163L66.5642 13.227C66.4939 13.7451 66.7222 14.0758 67.1934 14.1402C67.4422 14.1753 67.6968 14.1256 67.8929 14.0056L68.0744 14.667Z" fill="#FCB813"/>
<path d="M68.7141 12.5586C69.0419 11.1449 70.3004 10.3781 71.6936 10.703C73.0897 11.0249 73.877 12.2659 73.5463 13.6795C73.2185 15.0932 71.9687 15.8688 70.5726 15.5469C69.1824 15.2249 68.3892 13.9751 68.7141 12.5586ZM72.7004 13.4834C72.9346 12.4708 72.4195 11.6659 71.5238 11.4581C70.6282 11.2503 69.8029 11.7508 69.5687 12.7605C69.3346 13.7703 69.8556 14.5927 70.7541 14.8005C71.6468 15.0083 72.4663 14.4961 72.7004 13.4834Z" fill="#FCB813"/>
<path d="M74.194 13.8858C74.674 12.516 76.0086 11.8926 77.3959 12.3785C78.2037 12.6595 78.7569 13.2331 78.8915 13.9999L78.1276 14.1931C77.9959 13.6399 77.6272 13.277 77.1354 13.1043C76.2515 12.7941 75.3647 13.198 75.0223 14.1756C74.674 15.1736 75.1189 16.0282 76.0028 16.3385C76.4945 16.5112 77.0096 16.4555 77.4603 16.1073L77.9403 16.7219C77.3579 17.2399 76.5647 17.3482 75.7569 17.0673C74.3637 16.5843 73.714 15.2555 74.194 13.8858Z" fill="#FCB813"/>
<path d="M80.9105 16.6915L79.6139 17.113L79.0432 18.3159L78.2617 17.9442L81.1768 11.7832L81.9583 12.1549L80.0851 16.1091L83.4744 15.0349L84.4198 15.4827L81.7446 16.4398L82.5173 19.9666L81.5573 19.513L80.9105 16.6915Z" fill="#FCB813"/>
<path d="M88.516 16.0977L89.2624 16.604L86.1014 21.2635L88.9287 23.1806L88.4809 23.842L84.9131 21.4186L88.516 16.0977Z" fill="#FCB813"/>
<path d="M93.161 19.3887L93.8488 19.9711L90.2137 24.2765L92.8215 26.4775L92.3064 27.0892L89.0107 24.3057L93.161 19.3887Z" fill="#FCB813"/>
<path d="M94.6976 24.9078C96.0791 23.6024 98.0634 23.6844 99.3834 25.0775C100.054 25.7858 100.384 26.6317 100.3 27.5068L99.4771 27.4775C99.5239 26.7634 99.2927 26.1693 98.8156 25.6629C97.8381 24.6297 96.3542 24.58 95.3181 25.5605C94.282 26.541 94.2439 28.0249 95.2215 29.058C95.6986 29.5644 96.2869 29.8219 97.001 29.819L96.9805 30.6414C96.1025 30.6766 95.2683 30.3019 94.5951 29.5878C93.281 28.2005 93.3132 26.2132 94.6976 24.9078Z" fill="#FCB813"/>
<path d="M39.1882 102.324C39.1004 102.199 39.0096 102.081 38.9072 101.967C38.8048 101.853 38.6994 101.742 38.5882 101.634C38.477 101.528 38.3716 101.438 38.2721 101.367C38.0174 101.189 37.7716 101.113 37.5433 101.133C37.3121 101.157 37.1306 101.256 37.0018 101.429C36.9784 101.458 36.9609 101.493 36.9404 101.531C36.9199 101.572 36.9052 101.613 36.8965 101.66C36.4252 103.161 36.2116 103.922 35.8282 105.465C35.4448 105.201 35.2545 105.067 34.877 104.792C35.2721 103.36 35.4857 102.652 35.9511 101.259C36.0096 101.101 36.0887 100.955 36.194 100.817C36.3345 100.636 36.5043 100.489 36.7004 100.387C36.8965 100.281 37.1072 100.223 37.3267 100.205C37.5521 100.191 37.7804 100.214 38.0262 100.284C38.2691 100.355 38.515 100.478 38.7667 100.653C39.0038 100.82 39.2233 101.007 39.4282 101.221C39.633 101.435 39.8057 101.669 39.9462 101.932C39.7267 102.228 39.6126 102.374 39.3931 102.673C39.3433 102.564 39.276 102.45 39.1882 102.324Z" fill="#FCB813"/>
<path d="M40.8834 104.812C41.0824 105.344 41.1849 105.605 41.4044 106.134C40.8483 106.257 40.5702 106.31 39.9995 106.412C39.7888 105.877 39.6863 105.613 39.4961 105.078C40.058 104.981 40.3361 104.926 40.8834 104.812Z" fill="#FCB813"/>
<path d="M44.5924 106.619C44.8383 107.125 44.9671 107.374 45.2363 107.878C44.7007 108.056 44.4285 108.144 43.8783 108.302C43.6149 107.796 43.492 107.544 43.252 107.032C43.7934 106.877 44.0627 106.795 44.5924 106.619Z" fill="#FCB813"/>
<path d="M48.0334 106.332C48.1709 106.185 48.3319 106.068 48.5163 105.983C48.7007 105.901 48.8968 105.849 49.1075 105.837C49.3183 105.825 49.5378 105.849 49.7573 105.913C50.6939 106.185 51.1651 106.302 52.1163 106.51C51.6334 108.708 51.3905 109.806 50.9075 112.007C50.4919 111.913 50.2841 111.866 49.8714 111.764C50.0558 111.009 50.1495 110.628 50.3397 109.873C49.6958 109.715 49.3768 109.63 48.7387 109.443C48.4929 109.372 48.2792 109.267 48.0919 109.132C47.9075 108.995 47.7583 108.837 47.65 108.658C47.5417 108.48 47.4744 108.287 47.448 108.085C47.4217 107.883 47.4451 107.678 47.5153 107.473C47.5973 107.227 47.6412 107.104 47.7231 106.858C47.7934 106.656 47.8958 106.481 48.0334 106.332ZM48.5163 108.29C48.6158 108.448 48.768 108.559 48.9758 108.62C49.5992 108.799 49.9124 108.887 50.5417 109.039C50.7261 108.284 50.8197 107.903 51.01 107.148C50.4129 107.002 50.1144 106.92 49.5202 106.747C49.3212 106.689 49.1426 106.7 48.9758 106.779C48.809 106.855 48.7007 106.984 48.6422 107.163C48.5661 107.412 48.528 107.534 48.449 107.783C48.3963 107.959 48.4168 108.129 48.5163 108.29Z" fill="#FCB813"/>
<path d="M55.9713 111.936C58.4006 112.179 59.6269 112.211 62.0621 112.106C62.0181 111.07 61.9918 110.552 61.9479 109.51C62.3372 109.495 62.5303 109.481 62.9196 109.454C62.9899 110.49 63.0279 111.008 63.0981 112.047C63.4611 112.021 63.6425 112.009 64.0025 111.974C64.0347 112.32 64.0494 112.492 64.0786 112.835C60.8035 113.13 59.1499 113.122 55.8777 112.797C55.5499 112.764 55.2835 112.636 55.0757 112.419C54.8679 112.203 54.783 111.96 54.8152 111.696C54.944 110.707 55.0055 110.215 55.1313 109.229C55.5177 109.276 55.7138 109.299 56.1001 109.34C55.9977 110.329 55.9479 110.824 55.8455 111.816C55.8455 111.889 55.8835 111.927 55.9713 111.936ZM59.0533 108.137C58.784 108.371 58.6464 108.488 58.3684 108.717C58.1401 108.491 58.026 108.38 57.8064 108.158C58.0903 107.926 58.2279 107.812 58.503 107.578C58.7196 107.801 58.8279 107.915 59.0533 108.137ZM60.464 108.155C60.2006 108.398 60.0689 108.521 59.8025 108.761C59.5655 108.547 59.4513 108.439 59.2201 108.219C59.4952 107.979 59.6299 107.856 59.8962 107.613C60.1186 107.83 60.2299 107.938 60.464 108.155Z" fill="#FCB813"/>
<path d="M63.7371 112.094C63.8044 112.026 63.8951 111.988 64.0063 111.98C64.5244 111.933 64.782 111.906 65.3 111.842C65.1741 110.812 65.1098 110.297 64.9868 109.263C65.3732 109.217 65.5663 109.19 65.9527 109.135C66.102 110.162 66.181 110.677 66.3302 111.704C67.0005 111.605 67.3312 111.552 67.9985 111.426C67.8054 110.405 67.7117 109.893 67.5185 108.871C67.902 108.798 68.0951 108.76 68.4785 108.678C68.6951 109.694 68.8063 110.203 69.0229 111.219C69.6844 111.078 70.0151 111.002 70.6737 110.832C70.4132 109.828 70.2873 109.322 70.0298 108.315C70.4102 108.219 70.6005 108.169 70.9781 108.061C71.259 109.059 71.3995 109.562 71.6863 110.56C72.1898 110.42 72.4415 110.343 72.942 110.185C73.0473 110.516 73.1 110.683 73.2054 111.011C70.3283 111.956 67.1146 112.6 64.0941 112.837C63.98 112.846 63.8834 112.825 63.8015 112.77C63.7224 112.714 63.6756 112.641 63.6698 112.544C63.6639 112.457 63.661 112.416 63.6551 112.331C63.6376 112.24 63.6698 112.161 63.7371 112.094Z" fill="#FCB813"/>
<path d="M72.6974 110.353C72.753 110.274 72.832 110.215 72.9403 110.18C73.4408 110.022 73.6896 109.94 74.1842 109.765C73.8418 108.784 73.6691 108.295 73.3237 107.312C73.6954 107.18 73.8798 107.113 74.2515 106.972C74.6203 107.944 74.8047 108.43 75.1735 109.402C75.8144 109.159 76.1305 109.03 76.7627 108.761C76.3559 107.804 76.151 107.327 75.7442 106.37C76.11 106.212 76.2915 106.132 76.6544 105.969C77.0876 106.914 77.3013 107.385 77.7344 108.331C78.3139 108.067 78.6008 107.93 79.1715 107.643C79.2505 107.605 79.2739 107.549 79.2418 107.485C78.791 106.595 78.5657 106.153 78.1178 105.263C78.472 105.085 78.6535 104.991 79.0047 104.798C79.4759 105.676 79.713 106.112 80.1871 106.99C80.3159 107.224 80.3218 107.482 80.2017 107.763C80.0847 108.041 79.8681 108.263 79.5608 108.415C77.0876 109.659 75.8057 110.174 73.2037 111C73.0925 111.035 72.993 111.035 72.9022 110.997C72.8115 110.962 72.753 110.897 72.7266 110.807C72.7003 110.725 72.6886 110.681 72.6622 110.599C72.63 110.52 72.6417 110.432 72.6974 110.353Z" fill="#FCB813"/>
<path d="M80.0288 100.943C79.5137 101.274 79.2532 101.432 78.7293 101.737C78.6298 101.564 78.58 101.476 78.4805 101.306C78.5946 101.239 78.6532 101.204 78.7673 101.137C78.5127 101.078 78.3312 100.961 78.2288 100.788C78.1732 100.695 78.1673 100.586 78.2083 100.466C78.2493 100.346 78.3371 100.247 78.4629 100.168C78.7 100.024 78.9839 99.9512 79.3205 99.9395C79.3205 100.01 79.3146 100.077 79.3088 100.141C79.3 100.206 79.2971 100.273 79.2941 100.343C79.2356 100.337 79.1624 100.34 79.0746 100.352C78.9839 100.364 78.902 100.396 78.8229 100.446C78.7146 100.513 78.6795 100.58 78.7205 100.648C78.7585 100.709 78.8376 100.756 78.9634 100.785C79.0893 100.815 79.2298 100.809 79.382 100.762C79.5341 100.665 79.6132 100.618 79.7624 100.522C79.8678 100.692 79.9234 100.777 80.0288 100.943ZM82.5459 105.755C82.9117 105.527 83.0932 105.41 83.4561 105.173C83.6493 105.459 83.74 105.609 83.9332 105.896C83.1956 106.381 82.8239 106.616 82.0658 107.06C80.8805 105.047 80.2863 104.04 79.101 102.023C79.4288 101.83 79.5898 101.731 79.9117 101.532C80.9624 103.218 81.4922 104.063 82.5459 105.755Z" fill="#FCB813"/>
<path d="M83.257 105.407C83.2892 105.313 83.3536 105.234 83.4502 105.17C83.9916 104.813 84.2609 104.628 84.7907 104.248C84.1848 103.402 83.8863 102.981 83.2804 102.135C83.6141 101.898 83.778 101.778 84.1058 101.526C84.9399 102.629 85.3585 103.182 86.1926 104.289C85.3029 104.962 84.8492 105.281 83.9302 105.89C83.8307 105.957 83.7311 105.983 83.6316 105.978C83.5321 105.969 83.4589 105.922 83.4063 105.846C83.3594 105.773 83.336 105.738 83.2892 105.664C83.2365 105.588 83.2277 105.501 83.257 105.407ZM82.455 101.011C82.3731 101.368 82.3263 101.549 82.2355 101.906C81.9077 101.874 81.7497 101.857 81.4248 101.813C81.5214 101.45 81.5653 101.271 81.6531 100.914C81.9721 100.955 82.1331 100.976 82.455 101.011ZM83.6433 100.124C83.5731 100.487 83.535 100.668 83.4531 101.028C83.1253 101.008 82.9643 100.996 82.6365 100.97C82.7185 100.604 82.7594 100.422 82.8355 100.057C83.1575 100.089 83.3185 100.101 83.6433 100.124Z" fill="#FCB813"/>
</g>
<defs>
<clipPath id="clip0_547_1682">
<rect width="120" height="120" rx="60" fill="white"/>
</clipPath>
</defs>
</svg>
