<svg width="156" height="65" viewBox="0 0 156 65" fill="none" xmlns="http://www.w3.org/2000/svg">
<path d="M131.053 63.9298C130.807 63.7544 125.298 59.2281 119.684 52.2456C118.316 50.5263 117.053 48.8421 115.93 47.1579H20.8772C9.36842 47.1579 0 37.8246 0 26.2807C0 14.7368 9.33334 5.40351 20.8772 5.40351H117.228C121.298 2 126.491 0 132.07 0C145.263 0 156 11.2281 156 25.0176C156 33.5439 152.14 42.7018 144.491 52.2456C142.246 55.0526 140 57.4737 138.421 59.0526C135.298 62.1754 133.263 63.8246 133.123 63.9298C132.807 64.1754 132.456 64.3158 132.07 64.3158C131.684 64.3158 131.333 64.1754 131.018 63.9298H131.053Z" fill="#F0F0F0"/>
<path d="M13.9649 25.9298C13.9299 29.0526 14.772 30.7018 16.386 32.0351C17.6842 33.0877 19.193 33.614 20.9123 33.614C22.6316 33.614 26.0351 33.1579 26.7018 32.386V38.807C24.5264 39.6842 22.4913 40.1053 20.6316 40.1053C17.3685 40.1053 14.4913 39.0526 11.9299 36.9825C8.6667 34.3158 7.01758 30.8772 7.01758 26.5965C7.01758 23.7544 7.85968 21.4737 8.70179 19.9298C8.70179 19.9298 8.70179 19.8947 8.70179 19.8597C9.26319 18.8421 9.8246 18.1404 10.1755 17.7544C10.386 17.5439 10.4913 17.4035 10.4913 17.4035C10.9123 16.9825 11.3685 16.5614 11.8948 16.1404C14.4562 14.0702 17.3685 13.0175 20.5965 13.0175C23.8246 13.0175 21.0527 13.0175 21.2983 13.0175C21.5439 13.0175 21.7895 13.0175 22.0351 13.0877C22.4211 13.1228 22.8421 13.193 23.2281 13.2632C23.3334 13.2632 23.4386 13.2632 23.5439 13.3333C23.7193 13.3333 23.8948 13.4035 24.0702 13.4737C24.2456 13.5088 24.4211 13.579 24.5965 13.614C25.2632 13.7895 25.9649 14.0351 26.6667 14.3158V20.7368C26.0351 19.9649 22.2457 19.5088 20.8772 19.5088C19.5088 19.5088 19.2632 19.614 18.5614 19.8597C18.4913 19.8597 18.386 19.9298 18.3158 19.9649C18.2106 20 18.1053 20.0351 18 20.1053C17.9299 20.1053 17.8597 20.1754 17.7895 20.2105C17.6842 20.2807 17.5439 20.3158 17.4386 20.386C17.3685 20.386 17.2983 20.4561 17.2281 20.4912C17.0878 20.5614 16.9825 20.6667 16.8421 20.7368C16.6667 20.8421 16.4913 20.9825 16.3509 21.0877C14.8772 22.3158 14.0702 23.9298 13.9299 25.9298H13.9649Z" fill="url(#paint0_linear_226_9831)"/>
<path d="M74.631 29.0526H74.8064C76.6661 29.0526 78.4205 28.3158 79.7538 27.0175C81.4029 25.7193 82.3854 23.6842 82.3854 21.5789C82.3854 16.807 78.5257 12.9474 73.7538 12.9474H60.7012V40.0702H67.7538V30.5263C71.4731 33.193 73.9643 35.6842 75.3327 40.0702H82.3854L81.9292 38.8421C80.4906 34.9123 78.1398 31.4737 74.7012 29.0175L74.631 29.0526ZM67.6836 18.7368H71.9292C73.6135 18.7368 75.0871 20.0351 75.1222 21.7193C75.1924 23.4737 73.7538 24.9123 72.0345 24.9123H67.6485V18.7368H67.6836Z" fill="url(#paint1_linear_226_9831)"/>
<path d="M46.7362 12.9123H39.052C37.5783 16.7368 36.1397 20.5263 34.666 24.3509L33.1923 28.2456L28.666 40.0351H36.1046L37.8239 35.3333H38.2099C42.9467 35.3333 47.6836 35.3333 47.6836 35.3333L49.473 40.0351H56.9818L46.7713 12.9474L46.7362 12.9123ZM39.9994 29.9649C39.8941 29.9649 39.7888 29.9649 39.7186 29.9649L42.5607 22.1403L45.5783 30H40.0344L39.9994 29.9649Z" fill="url(#paint2_linear_226_9831)"/>
<path d="M110.106 24.9474H98.141V30.5614H104.071C103.755 31.5439 103.159 32.386 102.246 33.1579C100.983 34.2456 99.5796 34.7719 98.0006 34.7719C96.4217 34.7719 94.3866 34.0351 92.7024 32.5614C90.948 30.9825 90.1059 29.0175 90.1059 26.5614C90.1059 24.1053 90.8778 22.2456 92.4568 20.6667C94.0357 19.0526 95.9304 18.2807 98.2813 18.2807C100.632 18.2807 103.018 19.4737 104.843 21.8947L105.334 22.5263L105.58 22.8421L105.86 22.5614L106.457 22L109.123 19.4737L109.615 18.9825L109.86 18.7719L109.65 18.5263L109.194 18C107.58 16.1404 105.86 14.7719 104.141 13.8947C102.316 13.0526 100.352 12.5965 98.2813 12.5965C94.4217 12.5965 91.0883 13.9649 88.3866 16.6667C85.6848 19.3684 84.3164 22.6667 84.3164 26.5263C84.3164 30.386 85.6497 33.5789 88.3164 36.2807C90.9831 38.9825 94.2111 40.3509 97.9304 40.3509C101.65 40.3509 104.983 38.9474 107.474 36.1404C108.597 34.8772 109.369 33.5088 109.86 32.0702C110.316 30.5263 110.562 28.7719 110.562 26.807V24.9474H110.211H110.106Z" fill="#EE9823"/>
<path d="M132.28 6.07018C121.508 6.07018 112.736 14.8421 112.736 25.614C112.736 36.386 115.789 39.0877 121.789 46.2807C126.14 51.4737 130.456 54.8421 130.631 54.9825C131.087 55.3333 131.684 55.5439 132.28 55.5439C132.877 55.5439 133.473 55.3333 133.929 54.9825C133.999 54.9123 135.614 53.6842 138.07 51.3333C138.982 50.4561 140.807 48.6667 142.771 46.2807C148.771 39.0877 151.824 32.1404 151.824 25.614C151.824 14.8421 143.052 6.07018 132.28 6.07018Z" fill="#EE9823"/>
<path d="M132.49 42.7719C141.346 42.7719 148.525 35.5928 148.525 26.7368C148.525 17.8809 141.346 10.7018 132.49 10.7018C123.634 10.7018 116.455 17.8809 116.455 26.7368C116.455 35.5928 123.634 42.7719 132.49 42.7719Z" fill="url(#paint3_linear_226_9831)"/>
<path d="M123.929 25.3684C124.035 24.807 124.175 24.2456 124.351 23.7193C124.561 23.193 124.807 22.6667 125.087 22.1754C125.403 21.6842 125.719 21.2281 126.105 20.807C126.491 20.386 126.912 20 127.368 19.6842C127.824 19.3684 128.315 19.0526 128.842 18.8421C129.368 18.5965 129.894 18.4211 130.456 18.2807C131.017 18.1404 131.579 18.0702 132.14 18.0702C132.701 18.0702 133.263 18.0702 133.824 18.1754C134.386 18.2807 134.947 18.4211 135.473 18.5965C136 18.807 136.526 19.0526 137.017 19.3333C137.508 19.6491 137.965 19.9649 138.386 20.3509C138.807 20.7368 139.193 21.1579 139.508 21.614C139.824 22.0702 140.14 22.5614 140.351 23.0877C140.596 23.614 140.772 24.1403 140.912 24.7018C141.052 25.2632 141.122 25.8246 141.122 26.386C141.122 26.9474 141.122 27.5088 141.017 28.0702C140.912 28.6316 140.772 29.193 140.596 29.7193C140.386 30.2456 140.14 30.7719 139.859 31.2632C139.544 31.7544 139.228 32.2105 138.842 32.6316C138.456 33.0526 138.035 33.4386 137.579 33.7544C137.122 34.0702 136.631 34.386 136.105 34.5965C135.579 34.8421 135.052 35.0175 134.491 35.1579C133.929 35.2983 133.368 35.3684 132.807 35.3684C132.245 35.3684 131.684 35.3684 131.122 35.2632C130.561 35.1579 130 35.0175 129.473 34.8421C128.947 34.6316 128.421 34.386 127.929 34.1053C127.438 33.7895 126.982 33.4737 126.561 33.0877C126.14 32.7018 125.754 32.2807 125.438 31.8246C125.122 31.3684 124.807 30.8772 124.596 30.3509C124.351 29.8246 124.175 29.2982 124.035 28.7368C123.894 28.1754 123.824 27.614 123.824 27.0526C123.824 26.4912 123.824 25.9298 123.929 25.3684Z" fill="white"/>
<path d="M140.035 22.9825C139.965 22.9825 139.93 22.9825 139.859 22.9825C139.859 23.0526 139.859 23.1228 139.859 23.193C139.894 23.193 139.965 23.193 140 23.193C140 23.1228 140 23.0526 140 22.9825H140.035Z" fill="white"/>
<path d="M139.123 22.9123C139.123 22.9825 139.123 23.0176 139.123 23.0877C139.158 23.0877 139.193 23.0877 139.263 23.0877C139.263 23.0176 139.263 22.9825 139.263 22.9123C139.228 22.9123 139.158 22.9123 139.123 22.9123Z" fill="white"/>
<defs>
<linearGradient id="paint0_linear_226_9831" x1="16.8772" y1="11.2982" x2="16.8772" y2="42.2807" gradientUnits="userSpaceOnUse">
<stop stop-color="#4B83C9"/>
<stop offset="1" stop-color="#1C3876"/>
</linearGradient>
<linearGradient id="paint1_linear_226_9831" x1="71.4731" y1="11.2982" x2="71.4731" y2="42.2807" gradientUnits="userSpaceOnUse">
<stop stop-color="#4B83C9"/>
<stop offset="1" stop-color="#1C3876"/>
</linearGradient>
<linearGradient id="paint2_linear_226_9831" x1="42.7713" y1="11.2982" x2="42.7713" y2="42.2807" gradientUnits="userSpaceOnUse">
<stop stop-color="#4B83C9"/>
<stop offset="1" stop-color="#1C3876"/>
</linearGradient>
<linearGradient id="paint3_linear_226_9831" x1="119.894" y1="26.7368" x2="151.964" y2="26.7368" gradientUnits="userSpaceOnUse">
<stop stop-color="#4B83C9"/>
<stop offset="1" stop-color="#1C3876"/>
</linearGradient>
</defs>
</svg>
