<svg width="20" height="15" viewBox="0 0 20 15" fill="none" xmlns="http://www.w3.org/2000/svg">
<path d="M19.3196 7.55852L14.8626 14.657C14.8051 14.7448 14.7082 14.7993 14.6054 14.7993H9.05305C8.9411 14.7993 8.84125 14.7387 8.78676 14.6419C8.73227 14.5481 8.73531 14.4301 8.79582 14.3363L13.156 7.39809L8.79582 0.462969C8.73531 0.36918 8.73227 0.251172 8.78676 0.157344C8.84121 0.0605469 8.94106 0 9.05305 0H14.6054C14.7082 0 14.8051 0.0544921 14.8626 0.142227L19.3196 7.23773C19.3801 7.33457 19.3801 7.46172 19.3196 7.55852Z" fill="white"/>
<path d="M5.85634 14.7998C5.96052 14.7998 6.05727 14.7464 6.11251 14.658L10.5697 7.55891C10.6316 7.46082 10.6316 7.33551 10.5697 7.23711L6.11255 0.141523C6.05716 0.0534766 5.96036 0 5.85638 0H0.302625C0.192547 0 0.0910629 0.0600003 0.0377035 0.156328C-0.0154996 0.252657 -0.0122183 0.370274 0.0464145 0.463633L4.40575 7.39816L0.0464536 14.3363C-0.0122183 14.4296 -0.0154605 14.5472 0.0378989 14.6436C0.091102 14.7402 0.192586 14.7999 0.302664 14.7999H5.85634V14.7998ZM5.01938 7.55918C5.0813 7.46078 5.0813 7.33551 5.01938 7.23711L0.850321 0.605156H5.68911L9.95626 7.39816L5.68911 14.1947H0.850164L5.01938 7.55918Z" fill="white"/>
</svg>
