<svg width="18" height="18" viewBox="0 0 18 18" fill="none" xmlns="http://www.w3.org/2000/svg">
<g clip-path="url(#clip0_287_1999)">
<path d="M17.2976 9.14348L13.2863 15.5321C13.2345 15.6111 13.1474 15.6602 13.0548 15.6602H8.05771C7.95695 15.6602 7.86709 15.6057 7.81805 15.5185C7.769 15.4341 7.77174 15.3279 7.8262 15.2435L11.7504 8.9991L7.8262 2.75749C7.77174 2.67308 7.769 2.56687 7.81805 2.48243C7.86705 2.39531 7.95691 2.34082 8.05771 2.34082H13.0548C13.1474 2.34082 13.2345 2.38986 13.2863 2.46882L17.2976 8.85478C17.3521 8.94193 17.3521 9.05637 17.2976 9.14348Z" fill="#00B9EC"/>
<path d="M5.18086 15.6607C5.27462 15.6607 5.3617 15.6126 5.41141 15.533L9.42288 9.14384C9.47861 9.05556 9.47861 8.94278 9.42288 8.85422L5.41145 2.46819C5.3616 2.38895 5.27448 2.34082 5.18089 2.34082H0.182519C0.0834488 2.34082 -0.00788711 2.39482 -0.0559106 2.48152C-0.103793 2.56821 -0.10084 2.67407 -0.0480707 2.75809L3.87533 8.99917L-0.0480356 15.2434C-0.10084 15.3275 -0.103758 15.4333 -0.0557348 15.52C-0.00785195 15.607 0.083484 15.6607 0.182554 15.6607H5.18086V15.6607ZM4.4276 9.14408C4.48332 9.05552 4.48332 8.94278 4.4276 8.85422L0.675445 2.88546H5.03036L8.87079 8.99917L5.03036 15.116H0.675304L4.4276 9.14408Z" fill="#00B9EC"/>
</g>
<defs>
<clipPath id="clip0_287_1999">
<rect width="18" height="18" fill="white"/>
</clipPath>
</defs>
</svg>
