<svg width="72" height="72" viewBox="0 0 72 72" fill="none" xmlns="http://www.w3.org/2000/svg">
<g clip-path="url(#clip0_226_14423)" filter="url(#filter0_d_226_14423)">
<path d="M36 64C18.3296 64 4 49.6704 4 32C4 14.3296 18.3296 0 36 0C53.6704 0 68 14.3296 68 32C68 49.6704 53.6704 64 36 64Z" fill="url(#paint0_linear_226_14423)"/>
<path fill-rule="evenodd" clip-rule="evenodd" d="M50.9621 17.0943C46.9941 13.1199 41.7077 10.9311 36.0821 10.9247C24.4917 10.9247 15.0517 20.3583 15.0517 31.9551C15.0517 35.6607 16.0181 39.2831 17.8613 42.4703L14.8789 53.3695L26.0277 50.4447C29.0997 52.1215 32.5557 53.0047 36.0757 53.0047H36.0821C47.6725 53.0047 57.1061 43.5711 57.1125 31.9743C57.1189 26.3551 54.9365 21.0687 50.9621 17.0943ZM36.0885 49.4527H36.0821C32.9461 49.4527 29.8677 48.6079 27.1861 47.0143L26.5461 46.6367L19.9285 48.3711L21.6949 41.9199L21.2789 41.2607C19.5317 38.4767 18.6037 35.2639 18.6037 31.9551C18.6101 22.3167 26.4501 14.4767 36.0949 14.4767C40.7669 14.4767 45.1509 16.3007 48.4533 19.6031C51.7557 22.9055 53.5733 27.3023 53.5669 31.9679C53.5669 41.6127 45.7205 49.4527 36.0885 49.4527ZM45.6757 36.3583C45.1509 36.0959 42.5653 34.8223 42.0853 34.6495C41.6053 34.4767 41.2533 34.3871 40.9013 34.9119C40.5493 35.4367 39.5445 36.6207 39.2373 36.9727C38.9301 37.3247 38.6229 37.3695 38.0981 37.1071C37.5733 36.8447 35.8773 36.2879 33.8741 34.4959C32.3125 33.1007 31.2565 31.3791 30.9493 30.8543C30.6421 30.3295 30.9173 30.0415 31.1797 29.7791C31.4165 29.5423 31.7045 29.1647 31.9669 28.8575C32.2293 28.5503 32.3189 28.3327 32.4917 27.9807C32.6645 27.6287 32.5813 27.3215 32.4469 27.0591C32.3125 26.7967 31.2629 24.2111 30.8277 23.1551C30.3989 22.1311 29.9701 22.2719 29.6437 22.2527C29.3365 22.2399 28.9845 22.2335 28.6389 22.2335C28.2869 22.2335 27.7173 22.3679 27.2373 22.8927C26.7573 23.4175 25.4005 24.6911 25.4005 27.2767C25.4005 29.8623 27.2821 32.3647 27.5445 32.7103C27.8069 33.0623 31.2501 38.3679 36.5237 40.6463C37.7781 41.1903 38.7573 41.5103 39.5189 41.7535C40.7797 42.1567 41.9253 42.0991 42.8277 41.9647C43.8389 41.8111 45.9381 40.6911 46.3733 39.4687C46.8085 38.2399 46.8085 37.1903 46.6805 36.9727C46.5525 36.7551 46.2005 36.6271 45.6757 36.3583Z" fill="white"/>
</g>
<defs>
<filter id="filter0_d_226_14423" x="0" y="0" width="72" height="72" filterUnits="userSpaceOnUse" color-interpolation-filters="sRGB">
<feFlood flood-opacity="0" result="BackgroundImageFix"/>
<feColorMatrix in="SourceAlpha" type="matrix" values="0 0 0 0 0 0 0 0 0 0 0 0 0 0 0 0 0 0 127 0" result="hardAlpha"/>
<feOffset dy="4"/>
<feGaussianBlur stdDeviation="2"/>
<feComposite in2="hardAlpha" operator="out"/>
<feColorMatrix type="matrix" values="0 0 0 0 0 0 0 0 0 0 0 0 0 0 0 0 0 0 0.25 0"/>
<feBlend mode="normal" in2="BackgroundImageFix" result="effect1_dropShadow_226_14423"/>
<feBlend mode="normal" in="SourceGraphic" in2="effect1_dropShadow_226_14423" result="shape"/>
</filter>
<linearGradient id="paint0_linear_226_14423" x1="36" y1="64" x2="36" y2="0" gradientUnits="userSpaceOnUse">
<stop stop-color="#00D02D"/>
<stop offset="0.25" stop-color="#10D93A"/>
<stop offset="0.75" stop-color="#3AF15D"/>
<stop offset="1" stop-color="#51FE71"/>
</linearGradient>
<clipPath id="clip0_226_14423">
<rect width="64" height="64" fill="white" transform="translate(4)"/>
</clipPath>
</defs>
</svg>
