<svg width="34" height="34" viewBox="0 0 34 34" fill="none" xmlns="http://www.w3.org/2000/svg">
<g clip-path="url(#clip0_347_945)">
<path d="M21.682 4.16187C21.5157 3.54132 21.1178 3.02256 20.5614 2.70141C19.413 2.03834 17.9391 2.43309 17.2758 3.58182L16.9056 4.22296L16.5354 3.58173C15.8722 2.43328 14.3984 2.03834 13.2499 2.70132C12.1013 3.36449 11.7064 4.83832 12.3695 5.98696L14.1283 9.03333L7.63856 20.2739H2.90718C1.58094 20.2739 0.501953 21.3529 0.501953 22.6792C0.501953 24.0054 1.58094 25.0844 2.90718 25.0844H21.1735L18.3961 20.2739H13.1932L21.4417 5.98706C21.7629 5.43068 21.8484 4.78242 21.682 4.16187Z" fill="white"/>
<path d="M30.907 20.274H26.1756L20.7968 10.9577L18.0195 15.7682L26.3709 30.233C26.6921 30.7895 27.2107 31.1875 27.8314 31.3539C28.0387 31.4094 28.2489 31.4369 28.4579 31.4369C28.8746 31.4369 29.286 31.3276 29.6567 31.1135C30.8053 30.4504 31.2001 28.9764 30.5369 27.828L28.9528 25.0845H30.907C32.2332 25.0845 33.3122 24.0055 33.3122 22.6793C33.3122 21.353 32.2332 20.274 30.907 20.274Z" fill="white"/>
<path d="M3.74974 27.0085L3.27676 27.8277C2.61379 28.9761 3.00867 30.4498 4.15703 31.1127C4.53478 31.3308 4.94764 31.4345 5.35541 31.4344C6.1871 31.4344 6.99714 31.0031 7.44213 30.2325L9.30348 27.0085H3.74974Z" fill="white"/>
</g>
<defs>
<clipPath id="clip0_347_945">
<rect width="33.8146" height="33.8146" fill="white"/>
</clipPath>
</defs>
</svg>
