<svg width="35" height="35" viewBox="0 0 35 35" fill="none" xmlns="http://www.w3.org/2000/svg">
<g clip-path="url(#clip0_347_352)">
<path d="M2.55325 1.26941C2.14515 1.80871 1.91797 2.47212 1.91797 3.18208V31.2825C1.91797 31.942 2.11465 32.5615 2.46989 33.079L17.7597 17.1308L2.55325 1.26941Z" fill="white"/>
<path d="M19.1567 15.6703L24.1169 10.4965L6.68123 0.4302C5.92448 -0.00681601 5.05623 -0.110417 4.24609 0.117294L19.1567 15.6703Z" fill="white"/>
<path d="M19.1589 18.5911L4.09766 34.301C4.42239 34.4101 4.75844 34.4651 5.09475 34.4651C5.64036 34.4651 6.18623 34.3215 6.68346 34.0344L24.2445 23.8955L19.1589 18.5911Z" fill="white"/>
<path d="M31.0186 14.4805L25.9211 11.5374L20.5586 17.1305L26.0463 22.8548L31.0186 19.984C32.0136 19.4097 32.6075 18.3808 32.6075 17.2322C32.6075 16.0834 32.0136 15.0548 31.0186 14.4805Z" fill="white"/>
</g>
<defs>
<clipPath id="clip0_347_352">
<rect width="34.3975" height="34.4648" fill="white"/>
</clipPath>
</defs>
</svg>
