<svg width="632" height="739" viewBox="0 0 632 739" fill="none" xmlns="http://www.w3.org/2000/svg">
<g opacity="0.1">
<path d="M326.743 129.77C424.917 129.77 504.826 209.677 504.826 307.921C504.826 368.812 475.992 434.518 418.34 503.386C401.388 523.619 384.499 540.986 372.545 552.462C349.389 574.676 334.07 586.605 332.629 587.746C330.917 589.056 328.839 589.72 326.743 589.72C324.648 589.72 322.57 589.056 320.857 587.746C319.055 586.358 277.406 553.906 235.148 503.388L235.147 503.387C177.495 434.519 148.66 368.744 148.66 307.921C148.66 209.677 228.569 129.77 326.743 129.77Z" fill="#848484" stroke="#969696" stroke-width="6.87314"/>
<path d="M326.743 126.333C226.67 126.333 145.224 207.78 145.224 307.922C145.224 369.849 174.572 436.381 232.512 505.593C275.057 556.454 316.983 589.102 318.77 590.476C321.107 592.263 323.925 593.157 326.743 593.157C329.561 593.157 332.379 592.263 334.716 590.476C335.747 589.652 351.28 577.624 374.924 554.942C386.952 543.395 403.929 525.938 420.974 505.593C478.914 436.381 508.263 369.917 508.263 307.922C508.263 207.78 426.816 126.333 326.743 126.333Z" stroke="#CACACA" stroke-width="27.4926"/>
<path d="M326.02 235.893C331.502 235.694 336.902 236.025 342.294 236.945L342.314 236.948L342.334 236.952C347.737 237.809 352.947 239.192 358.102 241.108C363.255 243.025 368.128 245.397 372.729 248.289C377.37 251.207 381.74 254.518 385.773 258.221C389.778 261.897 393.335 265.978 396.507 270.406C399.689 274.848 402.455 279.529 404.687 284.517L404.69 284.524L404.693 284.532C406.942 289.493 408.724 294.643 409.977 299.981C411.232 305.336 411.957 310.681 412.155 316.159C412.353 321.642 412.023 327.042 411.103 332.434L411.1 332.454L411.097 332.474C410.24 337.877 408.856 343.086 406.939 348.241C405.023 353.395 402.65 358.268 399.759 362.868C396.841 367.51 393.53 371.88 389.827 375.913C386.151 379.918 382.07 383.474 377.643 386.646C373.201 389.829 368.519 392.595 363.531 394.826L363.523 394.83L363.517 394.833C358.556 397.082 353.406 398.864 348.067 400.116C342.713 401.372 337.367 402.098 331.889 402.296C326.406 402.494 321.006 402.163 315.614 401.242L315.595 401.239L315.574 401.236L314.563 401.069C309.52 400.204 304.639 398.876 299.807 397.079C294.653 395.163 289.78 392.79 285.18 389.898C280.538 386.981 276.168 383.67 272.135 379.967C268.13 376.29 264.574 372.21 261.401 367.782C258.219 363.34 255.453 358.659 253.222 353.672L253.219 353.664L253.215 353.656L252.799 352.724C250.745 348.051 249.107 343.212 247.933 338.207C246.677 332.853 245.951 327.506 245.753 322.028C245.555 316.546 245.885 311.146 246.806 305.754L246.809 305.734L246.812 305.714C247.669 300.31 249.052 295.101 250.969 289.946C252.885 284.792 255.258 279.92 258.149 275.319C261.067 270.677 264.378 266.308 268.081 262.274C271.758 258.27 275.839 254.713 280.267 251.541C284.708 248.359 289.389 245.593 294.377 243.361L294.385 243.358L294.393 243.354C299.353 241.106 304.502 239.325 309.841 238.072C315.195 236.816 320.542 236.091 326.02 235.893Z" fill="white" stroke="#F6F6F6" stroke-width="6.87314"/>
<mask id="path-4-inside-1_54_23380" fill="white">
<path d="M505.532 256.031L507.113 255.962H506.976C506.495 255.962 506.013 256.031 505.532 256.031Z"/>
</mask>
<path d="M505.532 256.031L507.113 255.962H506.976C506.495 255.962 506.013 256.031 505.532 256.031Z" fill="#471906"/>
<path d="M505.532 256.031L505.234 249.164L505.532 262.904V256.031ZM507.113 255.962L507.411 262.829L507.113 249.089V255.962ZM505.532 256.031L505.831 262.898L507.411 262.829L507.113 255.962L506.815 249.095L505.234 249.164L505.532 256.031ZM507.113 255.962V249.089H506.976V255.962V262.835H507.113V255.962ZM506.976 255.962V249.089C506.449 249.089 505.964 249.127 505.765 249.141C505.483 249.161 505.487 249.158 505.532 249.158V256.031V262.904C506.059 262.904 506.544 262.866 506.743 262.852C507.025 262.832 507.021 262.835 506.976 262.835V255.962Z" fill="#969696" mask="url(#path-4-inside-1_54_23380)"/>
</g>
</svg>
